<svg width="451" height="451" viewBox="0 0 451 451" fill="none" xmlns="http://www.w3.org/2000/svg">
<mask id="mask0_3_774" style="mask-type:luminance" maskUnits="userSpaceOnUse" x="0" y="0" width="451" height="451">
<path d="M5.5 99C8.53757 99 11 96.5376 11 93.5C11 90.4624 8.53757 88 5.5 88C2.46243 88 0 90.4624 0 93.5C0 96.5376 2.46243 99 5.5 99Z" fill="white"/>
<path d="M0 132H11V126.5C11 125.041 10.4205 123.642 9.38908 122.611C8.35763 121.579 6.95869 121 5.5 121C4.04131 121 2.64237 121.579 1.61092 122.611C0.579466 123.642 0 125.041 0 126.5" fill="white"/>
<path d="M11 132H0V137.5C0 138.959 0.579466 140.358 1.61092 141.389C2.64237 142.421 4.04131 143 5.5 143C6.95869 143 8.35763 142.421 9.38908 141.389C10.4205 140.358 11 138.959 11 137.5" fill="white"/>
<path d="M0 187H11V181.5C11 180.041 10.4205 178.642 9.38908 177.611C8.35763 176.579 6.95869 176 5.5 176C4.04131 176 2.64237 176.579 1.61092 177.611C0.579466 178.642 0 180.041 0 181.5" fill="white"/>
<path d="M11 187H0V198H11V187Z" fill="white"/>
<path d="M11 209L11 198H0L0 203.5C0 204.959 0.579462 206.358 1.61091 207.389C2.64236 208.421 4.04131 209 5.5 209" fill="white"/>
<path d="M0 231H11V220H5.5C4.04131 220 2.64237 220.579 1.61092 221.611C0.579466 222.642 0 224.041 0 225.5" fill="white"/>
<path d="M11 231H0V242H11V231Z" fill="white"/>
<path d="M11 242H0V253H11V242Z" fill="white"/>
<path d="M11 253H0V264H11V253Z" fill="white"/>
<path d="M11 275L11 264H0L0 269.5C0 270.959 0.579462 272.358 1.61091 273.389C2.64236 274.421 4.04131 275 5.5 275" fill="white"/>
<path d="M11 330L11 319H5.5C4.04131 319 2.64236 319.579 1.61091 320.611C0.579462 321.642 0 323.041 0 324.5C0 325.959 0.579462 327.358 1.61091 328.389C2.64236 329.421 4.04131 330 5.5 330" fill="white"/>
<path d="M0 352H11V346.5C11 345.041 10.4205 343.642 9.3891 342.611C8.35765 341.579 6.95869 341 5.5 341C4.04131 341 2.64235 341.579 1.6109 342.611C0.579451 343.642 0 345.041 0 346.5" fill="white"/>
<path d="M11 363L11 352H0L0 357.5C0 358.959 0.579462 360.358 1.61091 361.389C2.64236 362.421 4.04131 363 5.5 363" fill="white"/>
<path d="M16.5 110C19.5376 110 22 107.538 22 104.5C22 101.462 19.5376 99 16.5 99C13.4624 99 11 101.462 11 104.5C11 107.538 13.4624 110 16.5 110Z" fill="white"/>
<path d="M11 154H22V148.5C22 147.041 21.4205 145.642 20.3891 144.611C19.3576 143.579 17.9587 143 16.5 143C15.0413 143 13.6424 143.579 12.6109 144.611C11.5795 145.642 11 147.041 11 148.5" fill="white"/>
<path d="M22 154H11V165H22V154Z" fill="white"/>
<path d="M22 165H11V170.5C11 171.959 11.5795 173.358 12.6109 174.389C13.6424 175.421 15.0413 176 16.5 176C17.9587 176 19.3576 175.421 20.3891 174.389C21.4205 173.358 22 171.959 22 170.5" fill="white"/>
<path d="M11 187V198H22V192.5C22 191.041 21.4205 189.642 20.3891 188.611C19.3576 187.579 17.9587 187 16.5 187" fill="white"/>
<path d="M22 198H11V209H22V198Z" fill="white"/>
<path d="M11 220V231H16.5C17.9587 231 19.3576 230.421 20.3891 229.389C21.4205 228.358 22 226.959 22 225.5C22 224.041 21.4205 222.642 20.3891 221.611C19.3576 220.579 17.9587 220 16.5 220" fill="white"/>
<path d="M22 242H11V253H22V242Z" fill="white"/>
<path d="M22 253H11V264H22V253Z" fill="white"/>
<path d="M22 264H11V275H22V264Z" fill="white"/>
<path d="M11 308H22V302.5C22 301.041 21.4205 299.642 20.3891 298.611C19.3576 297.579 17.9587 297 16.5 297C15.0413 297 13.6424 297.579 12.6109 298.611C11.5795 299.642 11 301.041 11 302.5" fill="white"/>
<path d="M22 308H11V319H22V308Z" fill="white"/>
<path d="M22 319H11V330H22V319Z" fill="white"/>
<path d="M22 352H11V363H22V352Z" fill="white"/>
<path d="M27.5 132C30.5376 132 33 129.538 33 126.5C33 123.462 30.5376 121 27.5 121C24.4624 121 22 123.462 22 126.5C22 129.538 24.4624 132 27.5 132Z" fill="white"/>
<path d="M22 154V165H27.5C28.9587 165 30.3576 164.421 31.3891 163.389C32.4205 162.358 33 160.959 33 159.5C33 158.041 32.4205 156.642 31.3891 155.611C30.3576 154.579 28.9587 154 27.5 154" fill="white"/>
<path d="M27.5 187C30.5376 187 33 184.538 33 181.5C33 178.462 30.5376 176 27.5 176C24.4624 176 22 178.462 22 181.5C22 184.538 24.4624 187 27.5 187Z" fill="white"/>
<path d="M33 198H22V209H33V198Z" fill="white"/>
<path d="M22 242H33V231H27.5C26.0413 231 24.6424 231.579 23.6109 232.611C22.5795 233.642 22 235.041 22 236.5" fill="white"/>
<path d="M33 242H22V253H33V242Z" fill="white"/>
<path d="M33 264H22V275H33V264Z" fill="white"/>
<path d="M27.5 297C30.5376 297 33 294.538 33 291.5C33 288.462 30.5376 286 27.5 286C24.4624 286 22 288.462 22 291.5C22 294.538 24.4624 297 27.5 297Z" fill="white"/>
<path d="M22 319V330H33V324.5C33 323.041 32.4205 321.642 31.3891 320.611C30.3576 319.579 28.9587 319 27.5 319" fill="white"/>
<path d="M33 330H22V341H33V330Z" fill="white"/>
<path d="M33 341H22V352H33V341Z" fill="white"/>
<path d="M33 352H22V363H27.5C28.9587 363 30.3576 362.421 31.3891 361.389C32.4205 360.358 33 358.959 33 357.5" fill="white"/>
<path d="M33 110H44V99H38.5C37.0413 99 35.6424 99.5795 34.6109 100.611C33.5795 101.642 33 103.041 33 104.5" fill="white"/>
<path d="M44 110H33V115.5C33 116.959 33.5795 118.358 34.6109 119.389C35.6424 120.421 37.0413 121 38.5 121C39.9587 121 41.3576 120.421 42.3891 119.389C43.4205 118.358 44 116.959 44 115.5" fill="white"/>
<path d="M38.5 143C41.5376 143 44 140.538 44 137.5C44 134.462 41.5376 132 38.5 132C35.4624 132 33 134.462 33 137.5C33 140.538 35.4624 143 38.5 143Z" fill="white"/>
<path d="M38.5 176C41.5376 176 44 173.538 44 170.5C44 167.462 41.5376 165 38.5 165C35.4624 165 33 167.462 33 170.5C33 173.538 35.4624 176 38.5 176Z" fill="white"/>
<path d="M33 198H44V192.5C44 191.041 43.4205 189.642 42.3891 188.611C41.3576 187.579 39.9587 187 38.5 187C37.0413 187 35.6424 187.579 34.6109 188.611C33.5795 189.642 33 191.041 33 192.5" fill="white"/>
<path d="M44 198H33V209H38.5C39.9587 209 41.3576 208.421 42.3891 207.389C43.4205 206.358 44 204.959 44 203.5" fill="white"/>
<path d="M33 231H44V225.5C44 224.041 43.4205 222.642 42.3891 221.611C41.3576 220.579 39.9587 220 38.5 220C37.0413 220 35.6424 220.579 34.6109 221.611C33.5795 222.642 33 224.041 33 225.5" fill="white"/>
<path d="M44 231H33V242H44V231Z" fill="white"/>
<path d="M44 242H33V253H44V242Z" fill="white"/>
<path d="M44 264H33V275H44V264Z" fill="white"/>
<path d="M38.5 308C41.5376 308 44 305.538 44 302.5C44 299.462 41.5376 297 38.5 297C35.4624 297 33 299.462 33 302.5C33 305.538 35.4624 308 38.5 308Z" fill="white"/>
<path d="M44 341H33V352H44V341Z" fill="white"/>
<path d="M44 99H55V88H49.5C48.0413 88 46.6424 88.5795 45.6109 89.6109C44.5795 90.6424 44 92.0413 44 93.5" fill="white"/>
<path d="M55 99H44V110H49.5C50.9587 110 52.3576 109.421 53.3891 108.389C54.4205 107.358 55 105.959 55 104.5" fill="white"/>
<path d="M55 154V143H49.5C48.0413 143 46.6424 143.579 45.6109 144.611C44.5795 145.642 44 147.041 44 148.5C44 149.959 44.5795 151.358 45.6109 152.389C46.6424 153.421 48.0413 154 49.5 154" fill="white"/>
<path d="M55 187V176H49.5C48.0413 176 46.6424 176.579 45.6109 177.611C44.5795 178.642 44 180.041 44 181.5C44 182.959 44.5795 184.358 45.6109 185.389C46.6424 186.421 48.0413 187 49.5 187" fill="white"/>
<path d="M44 231V242H55V236.5C55 235.041 54.4205 233.642 53.3891 232.611C52.3576 231.579 50.9587 231 49.5 231" fill="white"/>
<path d="M55 242H44V253H49.5C50.9587 253 52.3576 252.421 53.3891 251.389C54.4205 250.358 55 248.959 55 247.5" fill="white"/>
<path d="M44 264V275H49.5C50.9587 275 52.3576 274.421 53.3891 273.389C54.4205 272.358 55 270.959 55 269.5C55 268.041 54.4205 266.642 53.3891 265.611C52.3576 264.579 50.9587 264 49.5 264" fill="white"/>
<path d="M49.5 297C52.5376 297 55 294.538 55 291.5C55 288.462 52.5376 286 49.5 286C46.4624 286 44 288.462 44 291.5C44 294.538 46.4624 297 49.5 297Z" fill="white"/>
<path d="M44 319H55V313.5C55 312.041 54.4205 310.642 53.3891 309.611C52.3576 308.579 50.9587 308 49.5 308C48.0413 308 46.6424 308.579 45.6109 309.611C44.5795 310.642 44 312.041 44 313.5" fill="white"/>
<path d="M55 319H44V330H55V319Z" fill="white"/>
<path d="M55 330H44V341H55V330Z" fill="white"/>
<path d="M55 341H44V352H55V341Z" fill="white"/>
<path d="M55 352H44V357.5C44 358.959 44.5795 360.358 45.6109 361.389C46.6424 362.421 48.0413 363 49.5 363C50.9587 363 52.3576 362.421 53.3891 361.389C54.4205 360.358 55 358.959 55 357.5" fill="white"/>
<path d="M66 88H55V99H66V88Z" fill="white"/>
<path d="M55 121H66V110H60.5C59.0413 110 57.6424 110.579 56.6109 111.611C55.5795 112.642 55 114.041 55 115.5" fill="white"/>
<path d="M66 121H55V126.5C55 127.959 55.5795 129.358 56.6109 130.389C57.6424 131.421 59.0413 132 60.5 132C61.9587 132 63.3576 131.421 64.3891 130.389C65.4205 129.358 66 127.959 66 126.5" fill="white"/>
<path d="M55 143V154H66V148.5C66 147.041 65.4205 145.642 64.3891 144.611C63.3576 143.579 61.9587 143 60.5 143" fill="white"/>
<path d="M66 165V154H55V159.5C55 160.959 55.5795 162.358 56.6109 163.389C57.6424 164.421 59.0413 165 60.5 165" fill="white"/>
<path d="M66 176H55V187H66V176Z" fill="white"/>
<path d="M66 187H55V198H66V187Z" fill="white"/>
<path d="M66 209V198H55V203.5C55 204.959 55.5795 206.358 56.6109 207.389C57.6424 208.421 59.0413 209 60.5 209" fill="white"/>
<path d="M66 231V220H60.5C59.0413 220 57.6424 220.579 56.6109 221.611C55.5795 222.642 55 224.041 55 225.5C55 226.959 55.5795 228.358 56.6109 229.389C57.6424 230.421 59.0413 231 60.5 231" fill="white"/>
<path d="M60.5 286C63.5376 286 66 283.538 66 280.5C66 277.462 63.5376 275 60.5 275C57.4624 275 55 277.462 55 280.5C55 283.538 57.4624 286 60.5 286Z" fill="white"/>
<path d="M60.5 308C63.5376 308 66 305.538 66 302.5C66 299.462 63.5376 297 60.5 297C57.4624 297 55 299.462 55 302.5C55 305.538 57.4624 308 60.5 308Z" fill="white"/>
<path d="M55 319V330H66V324.5C66 323.041 65.4205 321.642 64.3891 320.611C63.3576 319.579 61.9587 319 60.5 319" fill="white"/>
<path d="M66 330H55V341H66V330Z" fill="white"/>
<path d="M66 88V99H71.5C72.9587 99 74.3576 98.4205 75.3891 97.3891C76.4205 96.3576 77 94.9587 77 93.5C77 92.0413 76.4205 90.6424 75.3891 89.6109C74.3576 88.5795 72.9587 88 71.5 88" fill="white"/>
<path d="M77 110H66V121H77V110Z" fill="white"/>
<path d="M77 143V132H71.5C70.0413 132 68.6424 132.579 67.6109 133.611C66.5795 134.642 66 136.041 66 137.5C66 138.959 66.5795 140.358 67.6109 141.389C68.6424 142.421 70.0413 143 71.5 143" fill="white"/>
<path d="M66 154V165H71.5C72.9587 165 74.3576 164.421 75.3891 163.389C76.4205 162.358 77 160.959 77 159.5C77 158.041 76.4205 156.642 75.3891 155.611C74.3576 154.579 72.9587 154 71.5 154" fill="white"/>
<path d="M66 176V187H71.5C72.9587 187 74.3576 186.421 75.3891 185.389C76.4205 184.358 77 182.959 77 181.5C77 180.041 76.4205 178.642 75.3891 177.611C74.3576 176.579 72.9587 176 71.5 176" fill="white"/>
<path d="M77 198H66V209H77V198Z" fill="white"/>
<path d="M66 220V231H71.5C72.9587 231 74.3576 230.421 75.3891 229.389C76.4205 228.358 77 226.959 77 225.5C77 224.041 76.4205 222.642 75.3891 221.611C74.3576 220.579 72.9587 220 71.5 220" fill="white"/>
<path d="M71.5 253C74.5376 253 77 250.538 77 247.5C77 244.462 74.5376 242 71.5 242C68.4624 242 66 244.462 66 247.5C66 250.538 68.4624 253 71.5 253Z" fill="white"/>
<path d="M71.5 275C74.5376 275 77 272.538 77 269.5C77 266.462 74.5376 264 71.5 264C68.4624 264 66 266.462 66 269.5C66 272.538 68.4624 275 71.5 275Z" fill="white"/>
<path d="M71.5 297C74.5376 297 77 294.538 77 291.5C77 288.462 74.5376 286 71.5 286C68.4624 286 66 288.462 66 291.5C66 294.538 68.4624 297 71.5 297Z" fill="white"/>
<path d="M77 319V308H71.5C70.0413 308 68.6424 308.579 67.6109 309.611C66.5795 310.642 66 312.041 66 313.5C66 314.959 66.5795 316.358 67.6109 317.389C68.6424 318.421 70.0413 319 71.5 319" fill="white"/>
<path d="M77 330H66V341H77V330Z" fill="white"/>
<path d="M71.5 363C74.5376 363 77 360.538 77 357.5C77 354.462 74.5376 352 71.5 352C68.4624 352 66 354.462 66 357.5C66 360.538 68.4624 363 71.5 363Z" fill="white"/>
<path d="M77 110H88V99H82.5C81.0413 99 79.6424 99.5795 78.6109 100.611C77.5795 101.642 77 103.041 77 104.5" fill="white"/>
<path d="M88 110H77V121H88V110Z" fill="white"/>
<path d="M88 121H77V132H88V121Z" fill="white"/>
<path d="M88 132H77V143H88V132Z" fill="white"/>
<path d="M88 154V143H77V148.5C77 149.959 77.5795 151.358 78.6109 152.389C79.6424 153.421 81.0413 154 82.5 154" fill="white"/>
<path d="M77 198V209H82.5C83.9587 209 85.3576 208.421 86.3891 207.389C87.4205 206.358 88 204.959 88 203.5C88 202.041 87.4205 200.642 86.3891 199.611C85.3576 198.579 83.9587 198 82.5 198" fill="white"/>
<path d="M88 242V231H82.5C81.0413 231 79.6424 231.579 78.6109 232.611C77.5795 233.642 77 235.041 77 236.5C77 237.959 77.5795 239.358 78.6109 240.389C79.6424 241.421 81.0413 242 82.5 242" fill="white"/>
<path d="M77 308H88V302.5C88 301.041 87.4205 299.642 86.3891 298.611C85.3576 297.579 83.9587 297 82.5 297C81.0413 297 79.6424 297.579 78.6109 298.611C77.5795 299.642 77 301.041 77 302.5" fill="white"/>
<path d="M88 308H77V319H88V308Z" fill="white"/>
<path d="M77 330V341H88V335.5C88 334.041 87.4205 332.642 86.3891 331.611C85.3576 330.579 83.9587 330 82.5 330" fill="white"/>
<path d="M88 352V341H77V346.5C77 347.959 77.5795 349.358 78.6109 350.389C79.6424 351.421 81.0413 352 82.5 352" fill="white"/>
<path d="M88 22H99V11H93.5C92.0413 11 90.6424 11.5795 89.6109 12.6109C88.5795 13.6424 88 15.0413 88 16.5" fill="white"/>
<path d="M99 22H88V33H99V22Z" fill="white"/>
<path d="M99 33H88V44H99V33Z" fill="white"/>
<path d="M99 44H88V55H99V44Z" fill="white"/>
<path d="M99 55H88V66H99V55Z" fill="white"/>
<path d="M99 66H88V77H99V66Z" fill="white"/>
<path d="M99 77H88V82.5C88 83.9587 88.5795 85.3576 89.6109 86.3891C90.6424 87.4205 92.0413 88 93.5 88C94.9587 88 96.3576 87.4205 97.3891 86.3891C98.4205 85.3576 99 83.9587 99 82.5" fill="white"/>
<path d="M88 99V110H99V104.5C99 103.041 98.4205 101.642 97.3891 100.611C96.3576 99.5795 94.9587 99 93.5 99" fill="white"/>
<path d="M99 110H88V121H99V110Z" fill="white"/>
<path d="M99 121H88V132H93.5C94.9587 132 96.3576 131.421 97.3891 130.389C98.4205 129.358 99 127.959 99 126.5" fill="white"/>
<path d="M99 143H88V154H99V143Z" fill="white"/>
<path d="M93.5 176C96.5376 176 99 173.538 99 170.5C99 167.462 96.5376 165 93.5 165C90.4624 165 88 167.462 88 170.5C88 173.538 90.4624 176 93.5 176Z" fill="white"/>
<path d="M88 231H99V220H93.5C92.0413 220 90.6424 220.579 89.6109 221.611C88.5795 222.642 88 224.041 88 225.5" fill="white"/>
<path d="M99 231H88V242H93.5C94.9587 242 96.3576 241.421 97.3891 240.389C98.4205 239.358 99 237.959 99 236.5" fill="white"/>
<path d="M88 264H99V258.5C99 257.041 98.4205 255.642 97.3891 254.611C96.3576 253.579 94.9587 253 93.5 253C92.0413 253 90.6424 253.579 89.6109 254.611C88.5795 255.642 88 257.041 88 258.5" fill="white"/>
<path d="M99 264H88V275H99V264Z" fill="white"/>
<path d="M99 275H88V286H99V275Z" fill="white"/>
<path d="M99 286H88V291.5C88 292.959 88.5795 294.358 89.6109 295.389C90.6424 296.421 92.0413 297 93.5 297C94.9587 297 96.3576 296.421 97.3891 295.389C98.4205 294.358 99 292.959 99 291.5" fill="white"/>
<path d="M99 308H88V319H99V308Z" fill="white"/>
<path d="M99 319H88V324.5C88 325.959 88.5795 327.358 89.6109 328.389C90.6424 329.421 92.0413 330 93.5 330C94.9587 330 96.3576 329.421 97.3891 328.389C98.4205 327.358 99 325.959 99 324.5" fill="white"/>
<path d="M99 341H88V352H99V341Z" fill="white"/>
<path d="M88 396H99V385H93.5C92.0413 385 90.6424 385.579 89.6109 386.611C88.5795 387.642 88 389.041 88 390.5" fill="white"/>
<path d="M99 407V396H88V401.5C88 402.959 88.5795 404.358 89.6109 405.389C90.6424 406.421 92.0413 407 93.5 407" fill="white"/>
<path d="M93.5 451C96.5376 451 99 448.538 99 445.5C99 442.462 96.5376 440 93.5 440C90.4624 440 88 442.462 88 445.5C88 448.538 90.4624 451 93.5 451Z" fill="white"/>
<path d="M99 11H110V5.5C110 4.04131 109.421 2.64237 108.389 1.61092C107.358 0.579466 105.959 0 104.5 0C103.041 0 101.642 0.579466 100.611 1.61092C99.5795 2.64237 99 4.04131 99 5.5" fill="white"/>
<path d="M110 11H99V22H110V11Z" fill="white"/>
<path d="M99 33V44H110V38.5C110 37.0413 109.421 35.6424 108.389 34.6109C107.358 33.5795 105.959 33 104.5 33" fill="white"/>
<path d="M110 44H99V55H104.5C105.959 55 107.358 54.4205 108.389 53.3891C109.421 52.3576 110 50.9587 110 49.5" fill="white"/>
<path d="M110 99V88H104.5C103.041 88 101.642 88.5795 100.611 89.6109C99.5795 90.6424 99 92.0413 99 93.5C99 94.9587 99.5795 96.3576 100.611 97.3891C101.642 98.4205 103.041 99 104.5 99" fill="white"/>
<path d="M99 110V121H104.5C105.959 121 107.358 120.421 108.389 119.389C109.421 118.358 110 116.959 110 115.5C110 114.041 109.421 112.642 108.389 111.611C107.358 110.579 105.959 110 104.5 110" fill="white"/>
<path d="M99 143H110V137.5C110 136.041 109.421 134.642 108.389 133.611C107.358 132.579 105.959 132 104.5 132C103.041 132 101.642 132.579 100.611 133.611C99.5795 134.642 99 136.041 99 137.5" fill="white"/>
<path d="M110 143H99V154H104.5C105.959 154 107.358 153.421 108.389 152.389C109.421 151.358 110 149.959 110 148.5" fill="white"/>
<path d="M99 198H110V187H104.5C103.041 187 101.642 187.579 100.611 188.611C99.5795 189.642 99 191.041 99 192.5" fill="white"/>
<path d="M110 198H99V209H110V198Z" fill="white"/>
<path d="M110 209H99V220H110V209Z" fill="white"/>
<path d="M110 220H99V231H104.5C105.959 231 107.358 230.421 108.389 229.389C109.421 228.358 110 226.959 110 225.5" fill="white"/>
<path d="M110 264H99V275H110V264Z" fill="white"/>
<path d="M110 308H99V319H110V308Z" fill="white"/>
<path d="M99 341H110V330H104.5C103.041 330 101.642 330.579 100.611 331.611C99.5795 332.642 99 334.041 99 335.5" fill="white"/>
<path d="M110 341H99V352H110V341Z" fill="white"/>
<path d="M110 363V352H99V357.5C99 358.959 99.5795 360.358 100.611 361.389C101.642 362.421 103.041 363 104.5 363" fill="white"/>
<path d="M99 385H110V374H104.5C103.041 374 101.642 374.579 100.611 375.611C99.5795 376.642 99 378.041 99 379.5" fill="white"/>
<path d="M110 385H99V396H110V385Z" fill="white"/>
<path d="M110 396H99V407H104.5C105.959 407 107.358 406.421 108.389 405.389C109.421 404.358 110 402.959 110 401.5" fill="white"/>
<path d="M104.5 429C107.538 429 110 426.538 110 423.5C110 420.462 107.538 418 104.5 418C101.462 418 99 420.462 99 423.5C99 426.538 101.462 429 104.5 429Z" fill="white"/>
<path d="M121 11H110V22H121V11Z" fill="white"/>
<path d="M110 66H121V60.5C121 59.0413 120.421 57.6424 119.389 56.6109C118.358 55.5795 116.959 55 115.5 55C114.041 55 112.642 55.5795 111.611 56.6109C110.579 57.6424 110 59.0413 110 60.5" fill="white"/>
<path d="M121 66H110V71.5C110 72.9587 110.579 74.3576 111.611 75.3891C112.642 76.4205 114.041 77 115.5 77C116.959 77 118.358 76.4205 119.389 75.3891C120.421 74.3576 121 72.9587 121 71.5" fill="white"/>
<path d="M110 88V99H115.5C116.959 99 118.358 98.4205 119.389 97.3891C120.421 96.3576 121 94.9587 121 93.5C121 92.0413 120.421 90.6424 119.389 89.6109C118.358 88.5795 116.959 88 115.5 88" fill="white"/>
<path d="M110 165H121V159.5C121 158.041 120.421 156.642 119.389 155.611C118.358 154.579 116.959 154 115.5 154C114.041 154 112.642 154.579 111.611 155.611C110.579 156.642 110 158.041 110 159.5" fill="white"/>
<path d="M121 165H110V176H121V165Z" fill="white"/>
<path d="M121 176H110V187H121V176Z" fill="white"/>
<path d="M121 187H110V198H121V187Z" fill="white"/>
<path d="M110 209V220H115.5C116.959 220 118.358 219.421 119.389 218.389C120.421 217.358 121 215.959 121 214.5C121 213.041 120.421 211.642 119.389 210.611C118.358 209.579 116.959 209 115.5 209" fill="white"/>
<path d="M110 242H121V231H115.5C114.041 231 112.642 231.579 111.611 232.611C110.579 233.642 110 235.041 110 236.5" fill="white"/>
<path d="M121 242H110V247.5C110 248.959 110.579 250.358 111.611 251.389C112.642 252.421 114.041 253 115.5 253C116.959 253 118.358 252.421 119.389 251.389C120.421 250.358 121 248.959 121 247.5" fill="white"/>
<path d="M121 264H110V275H121V264Z" fill="white"/>
<path d="M110 308H121V302.5C121 301.041 120.421 299.642 119.389 298.611C118.358 297.579 116.959 297 115.5 297C114.041 297 112.642 297.579 111.611 298.611C110.579 299.642 110 301.041 110 302.5" fill="white"/>
<path d="M121 308H110V319H121V308Z" fill="white"/>
<path d="M110 330V341H115.5C116.959 341 118.358 340.421 119.389 339.389C120.421 338.358 121 336.959 121 335.5C121 334.041 120.421 332.642 119.389 331.611C118.358 330.579 116.959 330 115.5 330" fill="white"/>
<path d="M121 352H110V363H121V352Z" fill="white"/>
<path d="M121 374H110V385H121V374Z" fill="white"/>
<path d="M121 385H110V396H121V385Z" fill="white"/>
<path d="M132 11H121V22H132V11Z" fill="white"/>
<path d="M132 22H121V27.5C121 28.9587 121.579 30.3576 122.611 31.3891C123.642 32.4205 125.041 33 126.5 33C127.959 33 129.358 32.4205 130.389 31.3891C131.421 30.3576 132 28.9587 132 27.5" fill="white"/>
<path d="M126.5 55C129.538 55 132 52.5376 132 49.5C132 46.4624 129.538 44 126.5 44C123.462 44 121 46.4624 121 49.5C121 52.5376 123.462 55 126.5 55Z" fill="white"/>
<path d="M121 110H132V99H126.5C125.041 99 123.642 99.5795 122.611 100.611C121.579 101.642 121 103.041 121 104.5" fill="white"/>
<path d="M132 110H121V121H132V110Z" fill="white"/>
<path d="M132 121H121V132H132V121Z" fill="white"/>
<path d="M132 132H121V137.5C121 138.959 121.579 140.358 122.611 141.389C123.642 142.421 125.041 143 126.5 143C127.959 143 129.358 142.421 130.389 141.389C131.421 140.358 132 138.959 132 137.5" fill="white"/>
<path d="M132 187H121V198H132V187Z" fill="white"/>
<path d="M121 231H132V225.5C132 224.041 131.421 222.642 130.389 221.611C129.358 220.579 127.959 220 126.5 220C125.041 220 123.642 220.579 122.611 221.611C121.579 222.642 121 224.041 121 225.5" fill="white"/>
<path d="M132 231H121V242H126.5C127.959 242 129.358 241.421 130.389 240.389C131.421 239.358 132 237.959 132 236.5" fill="white"/>
<path d="M121 264V275H126.5C127.959 275 129.358 274.421 130.389 273.389C131.421 272.358 132 270.959 132 269.5C132 268.041 131.421 266.642 130.389 265.611C129.358 264.579 127.959 264 126.5 264" fill="white"/>
<path d="M132 297V286H126.5C125.041 286 123.642 286.579 122.611 287.611C121.579 288.642 121 290.041 121 291.5C121 292.959 121.579 294.358 122.611 295.389C123.642 296.421 125.041 297 126.5 297" fill="white"/>
<path d="M121 308V319H126.5C127.959 319 129.358 318.421 130.389 317.389C131.421 316.358 132 314.959 132 313.5C132 312.041 131.421 310.642 130.389 309.611C129.358 308.579 127.959 308 126.5 308" fill="white"/>
<path d="M121 352H132V341H126.5C125.041 341 123.642 341.579 122.611 342.611C121.579 343.642 121 345.041 121 346.5" fill="white"/>
<path d="M132 352H121V363H132V352Z" fill="white"/>
<path d="M132 363H121V374H132V363Z" fill="white"/>
<path d="M132 374H121V385H132V374Z" fill="white"/>
<path d="M132 385H121V396H126.5C127.959 396 129.358 395.421 130.389 394.389C131.421 393.358 132 391.959 132 390.5" fill="white"/>
<path d="M132 418V407H126.5C125.041 407 123.642 407.579 122.611 408.611C121.579 409.642 121 411.041 121 412.5C121 413.959 121.579 415.358 122.611 416.389C123.642 417.421 125.041 418 126.5 418" fill="white"/>
<path d="M132 451V440H126.5C125.041 440 123.642 440.579 122.611 441.611C121.579 442.642 121 444.041 121 445.5C121 446.959 121.579 448.358 122.611 449.389C123.642 450.421 125.041 451 126.5 451" fill="white"/>
<path d="M132 11V22H137.5C138.959 22 140.358 21.4205 141.389 20.3891C142.421 19.3576 143 17.9587 143 16.5C143 15.0413 142.421 13.6424 141.389 12.6109C140.358 11.5795 138.959 11 137.5 11" fill="white"/>
<path d="M143 44V33H137.5C136.041 33 134.642 33.5795 133.611 34.6109C132.579 35.6424 132 37.0413 132 38.5C132 39.9587 132.579 41.3576 133.611 42.3891C134.642 43.4205 136.041 44 137.5 44" fill="white"/>
<path d="M132 66H143V55H137.5C136.041 55 134.642 55.5795 133.611 56.6109C132.579 57.6424 132 59.0413 132 60.5" fill="white"/>
<path d="M143 66H132V71.5C132 72.9587 132.579 74.3576 133.611 75.3891C134.642 76.4205 136.041 77 137.5 77C138.959 77 140.358 76.4205 141.389 75.3891C142.421 74.3576 143 72.9587 143 71.5" fill="white"/>
<path d="M132 99V110H143V104.5C143 103.041 142.421 101.642 141.389 100.611C140.358 99.5795 138.959 99 137.5 99" fill="white"/>
<path d="M143 110H132V121H137.5C138.959 121 140.358 120.421 141.389 119.389C142.421 118.358 143 116.959 143 115.5" fill="white"/>
<path d="M132 165H143V154H137.5C136.041 154 134.642 154.579 133.611 155.611C132.579 156.642 132 158.041 132 159.5" fill="white"/>
<path d="M143 176V165H132V170.5C132 171.959 132.579 173.358 133.611 174.389C134.642 175.421 136.041 176 137.5 176" fill="white"/>
<path d="M143 187H132V198H143V187Z" fill="white"/>
<path d="M143 198H132V209H143V198Z" fill="white"/>
<path d="M143 209H132V214.5C132 215.959 132.579 217.358 133.611 218.389C134.642 219.421 136.041 220 137.5 220C138.959 220 140.358 219.421 141.389 218.389C142.421 217.358 143 215.959 143 214.5" fill="white"/>
<path d="M137.5 253C140.538 253 143 250.538 143 247.5C143 244.462 140.538 242 137.5 242C134.462 242 132 244.462 132 247.5C132 250.538 134.462 253 137.5 253Z" fill="white"/>
<path d="M132 286H143V275H137.5C136.041 275 134.642 275.579 133.611 276.611C132.579 277.642 132 279.041 132 280.5" fill="white"/>
<path d="M143 286H132V297H143V286Z" fill="white"/>
<path d="M137.5 330C140.538 330 143 327.538 143 324.5C143 321.462 140.538 319 137.5 319C134.462 319 132 321.462 132 324.5C132 327.538 134.462 330 137.5 330Z" fill="white"/>
<path d="M132 341V352H137.5C138.959 352 140.358 351.421 141.389 350.389C142.421 349.358 143 347.959 143 346.5C143 345.041 142.421 343.642 141.389 342.611C140.358 341.579 138.959 341 137.5 341" fill="white"/>
<path d="M132 407V418H143V412.5C143 411.041 142.421 409.642 141.389 408.611C140.358 407.579 138.959 407 137.5 407" fill="white"/>
<path d="M143 429V418H132V423.5C132 424.959 132.579 426.358 133.611 427.389C134.642 428.421 136.041 429 137.5 429" fill="white"/>
<path d="M143 440H132V451H143V440Z" fill="white"/>
<path d="M143 33H154V22H148.5C147.778 22 147.063 22.1423 146.395 22.4187C145.728 22.6951 145.122 23.1002 144.611 23.6109C144.1 24.1216 143.695 24.728 143.419 25.3952C143.142 26.0625 143 26.7777 143 27.5" fill="white"/>
<path d="M154 33H143V44H148.5C149.222 44 149.937 43.8577 150.605 43.5813C151.272 43.3049 151.878 42.8998 152.389 42.3891C152.9 41.8784 153.305 41.272 153.581 40.6048C153.858 39.9375 154 39.2223 154 38.5" fill="white"/>
<path d="M154 55H143V66H154V55Z" fill="white"/>
<path d="M148.5 99C151.538 99 154 96.5376 154 93.5C154 90.4624 151.538 88 148.5 88C145.462 88 143 90.4624 143 93.5C143 96.5376 145.462 99 148.5 99Z" fill="white"/>
<path d="M154 154H143V165H154V154Z" fill="white"/>
<path d="M154 165H143V176H148.5C149.222 176 149.937 175.858 150.605 175.581C151.272 175.305 151.878 174.9 152.389 174.389C152.9 173.878 153.305 173.272 153.581 172.605C153.858 171.937 154 171.222 154 170.5" fill="white"/>
<path d="M154 187H143V198H154V187Z" fill="white"/>
<path d="M154 198H143V209H148.5C149.222 209 149.937 208.858 150.605 208.581C151.272 208.305 151.878 207.9 152.389 207.389C152.9 206.878 153.305 206.272 153.581 205.605C153.858 204.937 154 204.222 154 203.5" fill="white"/>
<path d="M143 231H154V225.5C154 224.041 153.421 222.642 152.389 221.611C151.358 220.579 149.959 220 148.5 220C147.041 220 145.642 220.579 144.611 221.611C143.579 222.642 143 224.041 143 225.5" fill="white"/>
<path d="M154 242V231H143V236.5C143 237.222 143.142 237.937 143.419 238.605C143.695 239.272 144.1 239.878 144.611 240.389C145.122 240.9 145.728 241.305 146.395 241.581C147.063 241.858 147.778 242 148.5 242" fill="white"/>
<path d="M143 275H154V269.5C154 268.041 153.421 266.642 152.389 265.611C151.358 264.579 149.959 264 148.5 264C147.041 264 145.642 264.579 144.611 265.611C143.579 266.642 143 268.041 143 269.5" fill="white"/>
<path d="M154 275H143V286H154V275Z" fill="white"/>
<path d="M154 286H143V297H154V286Z" fill="white"/>
<path d="M154 297H143V308H154V297Z" fill="white"/>
<path d="M154 308H143V313.5C143 314.959 143.579 316.358 144.611 317.389C145.642 318.421 147.041 319 148.5 319C149.959 319 151.358 318.421 152.389 317.389C153.421 316.358 154 314.959 154 313.5" fill="white"/>
<path d="M148.5 341C151.538 341 154 338.538 154 335.5C154 332.462 151.538 330 148.5 330C145.462 330 143 332.462 143 335.5C143 338.538 145.462 341 148.5 341Z" fill="white"/>
<path d="M143 374H154V363H148.5C147.778 363 147.063 363.142 146.395 363.419C145.728 363.695 145.122 364.1 144.611 364.611C144.1 365.122 143.695 365.728 143.419 366.395C143.142 367.063 143 367.778 143 368.5" fill="white"/>
<path d="M154 374H143V385H154V374Z" fill="white"/>
<path d="M154 385H143V396H154V385Z" fill="white"/>
<path d="M154 396H143V401.5C143 402.959 143.579 404.358 144.611 405.389C145.642 406.421 147.041 407 148.5 407C149.959 407 151.358 406.421 152.389 405.389C153.421 404.358 154 402.959 154 401.5" fill="white"/>
<path d="M143 418V429H148.5C149.959 429 151.358 428.421 152.389 427.389C153.421 426.358 154 424.959 154 423.5C154 422.041 153.421 420.642 152.389 419.611C151.358 418.579 149.959 418 148.5 418" fill="white"/>
<path d="M143 440V451H148.5C149.959 451 151.358 450.421 152.389 449.389C153.421 448.358 154 446.959 154 445.5C154 444.041 153.421 442.642 152.389 441.611C151.358 440.579 149.959 440 148.5 440" fill="white"/>
<path d="M165 22H154V33H165V22Z" fill="white"/>
<path d="M154 55V66H165V60.5C165 59.0413 164.421 57.6424 163.389 56.6109C162.358 55.5795 160.959 55 159.5 55" fill="white"/>
<path d="M165 66H154V71.5C154 72.9587 154.579 74.3576 155.611 75.3891C156.642 76.4205 158.041 77 159.5 77C160.959 77 162.358 76.4205 163.389 75.3891C164.421 74.3576 165 72.9587 165 71.5" fill="white"/>
<path d="M154 121H165V115.5C165 114.041 164.421 112.642 163.389 111.611C162.358 110.579 160.959 110 159.5 110C158.041 110 156.642 110.579 155.611 111.611C154.579 112.642 154 114.041 154 115.5" fill="white"/>
<path d="M165 121H154V132H165V121Z" fill="white"/>
<path d="M165 132H154V143H165V132Z" fill="white"/>
<path d="M165 143H154V154H165V143Z" fill="white"/>
<path d="M165 154H154V165H165V154Z" fill="white"/>
<path d="M154 187H165V176H159.5C158.041 176 156.642 176.579 155.611 177.611C154.579 178.642 154 180.041 154 181.5" fill="white"/>
<path d="M165 187H154V198H159.5C160.959 198 162.358 197.421 163.389 196.389C164.421 195.358 165 193.959 165 192.5" fill="white"/>
<path d="M159.5 220C162.538 220 165 217.538 165 214.5C165 211.462 162.538 209 159.5 209C156.462 209 154 211.462 154 214.5C154 217.538 156.462 220 159.5 220Z" fill="white"/>
<path d="M165 231H154V242H165V231Z" fill="white"/>
<path d="M165 242H154V247.5C154 248.959 154.579 250.358 155.611 251.389C156.642 252.421 158.041 253 159.5 253C160.959 253 162.358 252.421 163.389 251.389C164.421 250.358 165 248.959 165 247.5" fill="white"/>
<path d="M154 275V286H165V280.5C165 279.041 164.421 277.642 163.389 276.611C162.358 275.579 160.959 275 159.5 275" fill="white"/>
<path d="M165 286H154V297H165V286Z" fill="white"/>
<path d="M154 363H165V357.5C165 356.041 164.421 354.642 163.389 353.611C162.358 352.579 160.959 352 159.5 352C158.041 352 156.642 352.579 155.611 353.611C154.579 354.642 154 356.041 154 357.5" fill="white"/>
<path d="M165 363H154V374H159.5C160.959 374 162.358 373.421 163.389 372.389C164.421 371.358 165 369.959 165 368.5" fill="white"/>
<path d="M165 22V33H170.5C171.959 33 173.358 32.4205 174.389 31.3891C175.421 30.3576 176 28.9587 176 27.5C176 26.0413 175.421 24.6424 174.389 23.6109C173.358 22.5795 171.959 22 170.5 22" fill="white"/>
<path d="M176 55V44H170.5C169.041 44 167.642 44.5795 166.611 45.6109C165.579 46.6424 165 48.0413 165 49.5C165 50.9587 165.579 52.3576 166.611 53.3891C167.642 54.4205 169.041 55 170.5 55" fill="white"/>
<path d="M165 88H176V82.5C176 81.0413 175.421 79.6424 174.389 78.6109C173.358 77.5795 171.959 77 170.5 77C169.041 77 167.642 77.5795 166.611 78.6109C165.579 79.6424 165 81.0413 165 82.5" fill="white"/>
<path d="M176 99V88H165V93.5C165 94.9587 165.579 96.3576 166.611 97.3891C167.642 98.4205 169.041 99 170.5 99" fill="white"/>
<path d="M165 143V154H176V148.5C176 147.041 175.421 145.642 174.389 144.611C173.358 143.579 171.959 143 170.5 143" fill="white"/>
<path d="M176 154H165V165H176V154Z" fill="white"/>
<path d="M176 176H165V187H176V176Z" fill="white"/>
<path d="M165 231H176V220H170.5C169.041 220 167.642 220.579 166.611 221.611C165.579 222.642 165 224.041 165 225.5" fill="white"/>
<path d="M176 231H165V242H176V231Z" fill="white"/>
<path d="M170.5 275C173.538 275 176 272.538 176 269.5C176 266.462 173.538 264 170.5 264C167.462 264 165 266.462 165 269.5C165 272.538 167.462 275 170.5 275Z" fill="white"/>
<path d="M176 286H165V297H176V286Z" fill="white"/>
<path d="M176 319V308H170.5C169.041 308 167.642 308.579 166.611 309.611C165.579 310.642 165 312.041 165 313.5C165 314.959 165.579 316.358 166.611 317.389C167.642 318.421 169.041 319 170.5 319" fill="white"/>
<path d="M176 352V341H170.5C169.041 341 167.642 341.579 166.611 342.611C165.579 343.642 165 345.041 165 346.5C165 347.959 165.579 349.358 166.611 350.389C167.642 351.421 169.041 352 170.5 352" fill="white"/>
<path d="M165 385H176V379.5C176 378.041 175.421 376.642 174.389 375.611C173.358 374.579 171.959 374 170.5 374C169.041 374 167.642 374.579 166.611 375.611C165.579 376.642 165 378.041 165 379.5" fill="white"/>
<path d="M176 396V385H165V390.5C165 391.959 165.579 393.358 166.611 394.389C167.642 395.421 169.041 396 170.5 396" fill="white"/>
<path d="M176 418V407H170.5C169.041 407 167.642 407.579 166.611 408.611C165.579 409.642 165 411.041 165 412.5C165 413.959 165.579 415.358 166.611 416.389C167.642 417.421 169.041 418 170.5 418" fill="white"/>
<path d="M181.5 22C184.538 22 187 19.5376 187 16.5C187 13.4624 184.538 11 181.5 11C178.462 11 176 13.4624 176 16.5C176 19.5376 178.462 22 181.5 22Z" fill="white"/>
<path d="M176 44V55H187V49.5C187 48.0413 186.421 46.6424 185.389 45.6109C184.358 44.5795 182.959 44 181.5 44" fill="white"/>
<path d="M187 55H176V66H187V55Z" fill="white"/>
<path d="M187 66H176V71.5C176 72.9587 176.579 74.3576 177.611 75.3891C178.642 76.4205 180.041 77 181.5 77C182.959 77 184.358 76.4205 185.389 75.3891C186.421 74.3576 187 72.9587 187 71.5" fill="white"/>
<path d="M176 88V99H181.5C182.959 99 184.358 98.4205 185.389 97.3891C186.421 96.3576 187 94.9587 187 93.5C187 92.0413 186.421 90.6424 185.389 89.6109C184.358 88.5795 182.959 88 181.5 88" fill="white"/>
<path d="M181.5 132C184.538 132 187 129.538 187 126.5C187 123.462 184.538 121 181.5 121C178.462 121 176 123.462 176 126.5C176 129.538 178.462 132 181.5 132Z" fill="white"/>
<path d="M187 154H176V165H187V154Z" fill="white"/>
<path d="M187 165H176V176H187V165Z" fill="white"/>
<path d="M187 176H176V187H187V176Z" fill="white"/>
<path d="M176 220H187V209H181.5C180.041 209 178.642 209.579 177.611 210.611C176.579 211.642 176 213.041 176 214.5" fill="white"/>
<path d="M187 220H176V231H187V220Z" fill="white"/>
<path d="M187 231H176V242H187V231Z" fill="white"/>
<path d="M187 253V242H176V247.5C176 248.959 176.579 250.358 177.611 251.389C178.642 252.421 180.041 253 181.5 253" fill="white"/>
<path d="M176 286V297H181.5C182.959 297 184.358 296.421 185.389 295.389C186.421 294.358 187 292.959 187 291.5C187 290.041 186.421 288.642 185.389 287.611C184.358 286.579 182.959 286 181.5 286" fill="white"/>
<path d="M187 308H176V319H187V308Z" fill="white"/>
<path d="M187 319H176V324.5C176 325.959 176.579 327.358 177.611 328.389C178.642 329.421 180.041 330 181.5 330C182.959 330 184.358 329.421 185.389 328.389C186.421 327.358 187 325.959 187 324.5" fill="white"/>
<path d="M187 341H176V352H187V341Z" fill="white"/>
<path d="M181.5 374C184.538 374 187 371.538 187 368.5C187 365.462 184.538 363 181.5 363C178.462 363 176 365.462 176 368.5C176 371.538 178.462 374 181.5 374Z" fill="white"/>
<path d="M187 385H176V396H187V385Z" fill="white"/>
<path d="M176 407V418H187V412.5C187 411.041 186.421 409.642 185.389 408.611C184.358 407.579 182.959 407 181.5 407" fill="white"/>
<path d="M187 418H176V423.5C176 424.959 176.579 426.358 177.611 427.389C178.642 428.421 180.041 429 181.5 429C182.959 429 184.358 428.421 185.389 427.389C186.421 426.358 187 424.959 187 423.5" fill="white"/>
<path d="M198 55H187V66H198V55Z" fill="white"/>
<path d="M192.5 88C195.538 88 198 85.5376 198 82.5C198 79.4624 195.538 77 192.5 77C189.462 77 187 79.4624 187 82.5C187 85.5376 189.462 88 192.5 88Z" fill="white"/>
<path d="M192.5 110C195.538 110 198 107.538 198 104.5C198 101.462 195.538 99 192.5 99C189.462 99 187 101.462 187 104.5C187 107.538 189.462 110 192.5 110Z" fill="white"/>
<path d="M187 154H198V143H192.5C191.041 143 189.642 143.579 188.611 144.611C187.579 145.642 187 147.041 187 148.5" fill="white"/>
<path d="M198 154H187V165H198V154Z" fill="white"/>
<path d="M198 165H187V176H198V165Z" fill="white"/>
<path d="M198 176H187V187H198V176Z" fill="white"/>
<path d="M198 187H187V198H198V187Z" fill="white"/>
<path d="M198 198H187V209H198V198Z" fill="white"/>
<path d="M198 209H187V220H198V209Z" fill="white"/>
<path d="M198 242H187V253H198V242Z" fill="white"/>
<path d="M198 253H187V258.5C187 259.959 187.579 261.358 188.611 262.389C189.642 263.421 191.041 264 192.5 264C193.959 264 195.358 263.421 196.389 262.389C197.421 261.358 198 259.959 198 258.5" fill="white"/>
<path d="M198 286V275H192.5C191.041 275 189.642 275.579 188.611 276.611C187.579 277.642 187 279.041 187 280.5C187 281.959 187.579 283.358 188.611 284.389C189.642 285.421 191.041 286 192.5 286" fill="white"/>
<path d="M198 308H187V319H198V308Z" fill="white"/>
<path d="M187 341V352H198V346.5C198 345.041 197.421 343.642 196.389 342.611C195.358 341.579 193.959 341 192.5 341" fill="white"/>
<path d="M198 363V352H187V357.5C187 358.959 187.579 360.358 188.611 361.389C189.642 362.421 191.041 363 192.5 363" fill="white"/>
<path d="M187 385H198V374H192.5C191.041 374 189.642 374.579 188.611 375.611C187.579 376.642 187 378.041 187 379.5" fill="white"/>
<path d="M198 385H187V396H198V385Z" fill="white"/>
<path d="M198 407V396H187V401.5C187 402.959 187.579 404.358 188.611 405.389C189.642 406.421 191.041 407 192.5 407" fill="white"/>
<path d="M187 440H198V434.5C198 433.041 197.421 431.642 196.389 430.611C195.358 429.579 193.959 429 192.5 429C191.041 429 189.642 429.579 188.611 430.611C187.579 431.642 187 433.041 187 434.5" fill="white"/>
<path d="M198 440H187V445.5C187 446.959 187.579 448.358 188.611 449.389C189.642 450.421 191.041 451 192.5 451C193.959 451 195.358 450.421 196.389 449.389C197.421 448.358 198 446.959 198 445.5" fill="white"/>
<path d="M198 55H209V44H203.5C202.041 44 200.642 44.5795 199.611 45.6109C198.579 46.6424 198 48.0413 198 49.5" fill="white"/>
<path d="M209 55H198V66H209V55Z" fill="white"/>
<path d="M209 66H198V71.5C198 72.9587 198.579 74.3576 199.611 75.3891C200.642 76.4205 202.041 77 203.5 77C204.959 77 206.358 76.4205 207.389 75.3891C208.421 74.3576 209 72.9587 209 71.5" fill="white"/>
<path d="M209 99V88H203.5C202.041 88 200.642 88.5795 199.611 89.6109C198.579 90.6424 198 92.0413 198 93.5C198 94.9587 198.579 96.3576 199.611 97.3891C200.642 98.4205 202.041 99 203.5 99" fill="white"/>
<path d="M198 121H209V110H203.5C202.041 110 200.642 110.579 199.611 111.611C198.579 112.642 198 114.041 198 115.5" fill="white"/>
<path d="M209 121H198V132H209V121Z" fill="white"/>
<path d="M209 132H198V143H209V132Z" fill="white"/>
<path d="M209 143H198V154H209V143Z" fill="white"/>
<path d="M209 165H198V176H209V165Z" fill="white"/>
<path d="M209 187H198V198H209V187Z" fill="white"/>
<path d="M209 209H198V220H209V209Z" fill="white"/>
<path d="M198 242H209V231H203.5C202.041 231 200.642 231.579 199.611 232.611C198.579 233.642 198 235.041 198 236.5" fill="white"/>
<path d="M209 242H198V253H209V242Z" fill="white"/>
<path d="M198 275H209V269.5C209 268.041 208.421 266.642 207.389 265.611C206.358 264.579 204.959 264 203.5 264C202.041 264 200.642 264.579 199.611 265.611C198.579 266.642 198 268.041 198 269.5" fill="white"/>
<path d="M209 275H198V286H209V275Z" fill="white"/>
<path d="M209 286H198V297H209V286Z" fill="white"/>
<path d="M209 297H198V308H209V297Z" fill="white"/>
<path d="M209 308H198V319H209V308Z" fill="white"/>
<path d="M203.5 341C206.538 341 209 338.538 209 335.5C209 332.462 206.538 330 203.5 330C200.462 330 198 332.462 198 335.5C198 338.538 200.462 341 203.5 341Z" fill="white"/>
<path d="M198 352V363H209V357.5C209 356.041 208.421 354.642 207.389 353.611C206.358 352.579 204.959 352 203.5 352" fill="white"/>
<path d="M209 363H198V374H209V363Z" fill="white"/>
<path d="M209 374H198V385H203.5C204.959 385 206.358 384.421 207.389 383.389C208.421 382.358 209 380.959 209 379.5" fill="white"/>
<path d="M209 396H198V407H209V396Z" fill="white"/>
<path d="M203.5 429C206.538 429 209 426.538 209 423.5C209 420.462 206.538 418 203.5 418C200.462 418 198 420.462 198 423.5C198 426.538 200.462 429 203.5 429Z" fill="white"/>
<path d="M209 22H220V16.5C220 15.0413 219.421 13.6424 218.389 12.6109C217.358 11.5795 215.959 11 214.5 11C213.041 11 211.642 11.5795 210.611 12.6109C209.579 13.6424 209 15.0413 209 16.5" fill="white"/>
<path d="M220 22H209V33H220V22Z" fill="white"/>
<path d="M220 33H209V44H220V33Z" fill="white"/>
<path d="M220 44H209V55H214.5C215.959 55 217.358 54.4205 218.389 53.3891C219.421 52.3576 220 50.9587 220 49.5" fill="white"/>
<path d="M209 88V99H214.5C215.959 99 217.358 98.4205 218.389 97.3891C219.421 96.3576 220 94.9587 220 93.5C220 92.0413 219.421 90.6424 218.389 89.6109C217.358 88.5795 215.959 88 214.5 88" fill="white"/>
<path d="M209 110V121H220V115.5C220 114.041 219.421 112.642 218.389 111.611C217.358 110.579 215.959 110 214.5 110" fill="white"/>
<path d="M220 121H209V132H220V121Z" fill="white"/>
<path d="M220 132H209V143H220V132Z" fill="white"/>
<path d="M220 143H209V154H220V143Z" fill="white"/>
<path d="M220 154H209V165H220V154Z" fill="white"/>
<path d="M220 165H209V176H220V165Z" fill="white"/>
<path d="M220 176H209V187H220V176Z" fill="white"/>
<path d="M220 187H209V198H220V187Z" fill="white"/>
<path d="M220 198H209V209H220V198Z" fill="white"/>
<path d="M220 209H209V220H214.5C215.959 220 217.358 219.421 218.389 218.389C219.421 217.358 220 215.959 220 214.5" fill="white"/>
<path d="M209 231V242H220V236.5C220 235.041 219.421 233.642 218.389 232.611C217.358 231.579 215.959 231 214.5 231" fill="white"/>
<path d="M220 242H209V253H220V242Z" fill="white"/>
<path d="M209 275V286H214.5C215.959 286 217.358 285.421 218.389 284.389C219.421 283.358 220 281.959 220 280.5C220 279.041 219.421 277.642 218.389 276.611C217.358 275.579 215.959 275 214.5 275" fill="white"/>
<path d="M220 297H209V308H220V297Z" fill="white"/>
<path d="M220 308H209V319H214.5C215.959 319 217.358 318.421 218.389 317.389C219.421 316.358 220 314.959 220 313.5" fill="white"/>
<path d="M214.5 352C217.538 352 220 349.538 220 346.5C220 343.462 217.538 341 214.5 341C211.462 341 209 343.462 209 346.5C209 349.538 211.462 352 214.5 352Z" fill="white"/>
<path d="M209 396V407H214.5C215.959 407 217.358 406.421 218.389 405.389C219.421 404.358 220 402.959 220 401.5C220 400.041 219.421 398.642 218.389 397.611C217.358 396.579 215.959 396 214.5 396" fill="white"/>
<path d="M214.5 440C217.538 440 220 437.538 220 434.5C220 431.462 217.538 429 214.5 429C211.462 429 209 431.462 209 434.5C209 437.538 211.462 440 214.5 440Z" fill="white"/>
<path d="M231 22H220V33H231V22Z" fill="white"/>
<path d="M231 33H220V44H225.5C226.959 44 228.358 43.4205 229.389 42.3891C230.421 41.3576 231 39.9587 231 38.5" fill="white"/>
<path d="M220 77H231V71.5C231 70.0413 230.421 68.6424 229.389 67.6109C228.358 66.5795 226.959 66 225.5 66C224.041 66 222.642 66.5795 221.611 67.6109C220.579 68.6424 220 70.0413 220 71.5" fill="white"/>
<path d="M231 88V77H220V82.5C220 83.9587 220.579 85.3576 221.611 86.3891C222.642 87.4205 224.041 88 225.5 88" fill="white"/>
<path d="M231 110V99H225.5C224.041 99 222.642 99.5795 221.611 100.611C220.579 101.642 220 103.041 220 104.5C220 105.959 220.579 107.358 221.611 108.389C222.642 109.421 224.041 110 225.5 110" fill="white"/>
<path d="M220 121V132H225.5C226.959 132 228.358 131.421 229.389 130.389C230.421 129.358 231 127.959 231 126.5C231 125.041 230.421 123.642 229.389 122.611C228.358 121.579 226.959 121 225.5 121" fill="white"/>
<path d="M220 165V176H231V170.5C231 169.041 230.421 167.642 229.389 166.611C228.358 165.579 226.959 165 225.5 165" fill="white"/>
<path d="M231 176H220V187H231V176Z" fill="white"/>
<path d="M231 198H220V209H231V198Z" fill="white"/>
<path d="M220 242V253H225.5C226.959 253 228.358 252.421 229.389 251.389C230.421 250.358 231 248.959 231 247.5C231 246.041 230.421 244.642 229.389 243.611C228.358 242.579 226.959 242 225.5 242" fill="white"/>
<path d="M225.5 275C228.538 275 231 272.538 231 269.5C231 266.462 228.538 264 225.5 264C222.462 264 220 266.462 220 269.5C220 272.538 222.462 275 225.5 275Z" fill="white"/>
<path d="M220 297H231V291.5C231 290.041 230.421 288.642 229.389 287.611C228.358 286.579 226.959 286 225.5 286C224.041 286 222.642 286.579 221.611 287.611C220.579 288.642 220 290.041 220 291.5" fill="white"/>
<path d="M231 297H220V308H231V297Z" fill="white"/>
<path d="M225.5 341C228.538 341 231 338.538 231 335.5C231 332.462 228.538 330 225.5 330C222.462 330 220 332.462 220 335.5C220 338.538 222.462 341 225.5 341Z" fill="white"/>
<path d="M225.5 429C228.538 429 231 426.538 231 423.5C231 420.462 228.538 418 225.5 418C222.462 418 220 420.462 220 423.5C220 426.538 222.462 429 225.5 429Z" fill="white"/>
<path d="M231 11H242V0H236.5C235.778 0 235.063 0.14227 234.395 0.418671C233.728 0.695072 233.122 1.10018 232.611 1.6109C232.1 2.12162 231.695 2.72794 231.419 3.39523C231.142 4.06252 231 4.77773 231 5.5" fill="white"/>
<path d="M242 11H231V22H242V11Z" fill="white"/>
<path d="M242 22H231V33H242V22Z" fill="white"/>
<path d="M231 55H242V49.5C242 48.0413 241.421 46.6424 240.389 45.6109C239.358 44.5795 237.959 44 236.5 44C235.041 44 233.642 44.5795 232.611 45.6109C231.579 46.6424 231 48.0413 231 49.5" fill="white"/>
<path d="M242 66V55H231V60.5C231 61.9587 231.579 63.3576 232.611 64.3891C233.642 65.4205 235.041 66 236.5 66" fill="white"/>
<path d="M231 77V88H236.5C237.959 88 239.358 87.4205 240.389 86.3891C241.421 85.3576 242 83.9587 242 82.5C242 81.0413 241.421 79.6424 240.389 78.6109C239.358 77.5795 237.959 77 236.5 77" fill="white"/>
<path d="M242 99H231V110H242V99Z" fill="white"/>
<path d="M242 121V110H231V115.5C231 116.959 231.579 118.358 232.611 119.389C233.642 120.421 235.041 121 236.5 121" fill="white"/>
<path d="M231 176V187H236.5C237.959 187 239.358 186.421 240.389 185.389C241.421 184.358 242 182.959 242 181.5C242 180.041 241.421 178.642 240.389 177.611C239.358 176.579 237.959 176 236.5 176" fill="white"/>
<path d="M242 198H231V209H242V198Z" fill="white"/>
<path d="M242 209H231V220H242V209Z" fill="white"/>
<path d="M242 231V220H231V225.5C231 226.959 231.579 228.358 232.611 229.389C233.642 230.421 235.041 231 236.5 231" fill="white"/>
<path d="M236.5 264C239.538 264 242 261.538 242 258.5C242 255.462 239.538 253 236.5 253C233.462 253 231 255.462 231 258.5C231 261.538 233.462 264 236.5 264Z" fill="white"/>
<path d="M242 286V275H236.5C235.041 275 233.642 275.579 232.611 276.611C231.579 277.642 231 279.041 231 280.5C231 281.959 231.579 283.358 232.611 284.389C233.642 285.421 235.041 286 236.5 286" fill="white"/>
<path d="M242 297H231V308H242V297Z" fill="white"/>
<path d="M242 308H231V313.5C231 314.959 231.579 316.358 232.611 317.389C233.642 318.421 235.041 319 236.5 319C237.959 319 239.358 318.421 240.389 317.389C241.421 316.358 242 314.959 242 313.5" fill="white"/>
<path d="M231 363H242V352H236.5C235.041 352 233.642 352.579 232.611 353.611C231.579 354.642 231 356.041 231 357.5" fill="white"/>
<path d="M242 363H231V374H242V363Z" fill="white"/>
<path d="M242 374H231V379.5C231 380.959 231.579 382.358 232.611 383.389C233.642 384.421 235.041 385 236.5 385C237.959 385 239.358 384.421 240.389 383.389C241.421 382.358 242 380.959 242 379.5" fill="white"/>
<path d="M236.5 407C239.538 407 242 404.538 242 401.5C242 398.462 239.538 396 236.5 396C233.462 396 231 398.462 231 401.5C231 404.538 233.462 407 236.5 407Z" fill="white"/>
<path d="M231 440H242V434.5C242 433.041 241.421 431.642 240.389 430.611C239.358 429.579 237.959 429 236.5 429C235.041 429 233.642 429.579 232.611 430.611C231.579 431.642 231 433.041 231 434.5" fill="white"/>
<path d="M242 440H231V445.5C231 446.959 231.579 448.358 232.611 449.389C233.642 450.421 235.041 451 236.5 451C237.959 451 239.358 450.421 240.389 449.389C241.421 448.358 242 446.959 242 445.5" fill="white"/>
<path d="M253 0H242V11H253V0Z" fill="white"/>
<path d="M253 22H242V33H253V22Z" fill="white"/>
<path d="M242 55V66H253V60.5C253 59.0413 252.421 57.6424 251.389 56.6109C250.358 55.5795 248.959 55 247.5 55" fill="white"/>
<path d="M253 66H242V71.5C242 72.9587 242.579 74.3576 243.611 75.3891C244.642 76.4205 246.041 77 247.5 77C248.959 77 250.358 76.4205 251.389 75.3891C252.421 74.3576 253 72.9587 253 71.5" fill="white"/>
<path d="M253 99H242V110H253V99Z" fill="white"/>
<path d="M253 110H242V121H253V110Z" fill="white"/>
<path d="M253 132V121H242V126.5C242 127.959 242.579 129.358 243.611 130.389C244.642 131.421 246.041 132 247.5 132" fill="white"/>
<path d="M253 176V165H247.5C246.041 165 244.642 165.579 243.611 166.611C242.579 167.642 242 169.041 242 170.5C242 171.959 242.579 173.358 243.611 174.389C244.642 175.421 246.041 176 247.5 176" fill="white"/>
<path d="M242 198H253V192.5C253 191.041 252.421 189.642 251.389 188.611C250.358 187.579 248.959 187 247.5 187C246.041 187 244.642 187.579 243.611 188.611C242.579 189.642 242 191.041 242 192.5" fill="white"/>
<path d="M253 198H242V209H247.5C248.959 209 250.358 208.421 251.389 207.389C252.421 206.358 253 204.959 253 203.5" fill="white"/>
<path d="M253 220H242V231H253V220Z" fill="white"/>
<path d="M253 231H242V236.5C242 237.959 242.579 239.358 243.611 240.389C244.642 241.421 246.041 242 247.5 242C248.959 242 250.358 241.421 251.389 240.389C252.421 239.358 253 237.959 253 236.5" fill="white"/>
<path d="M242 275V286H253V280.5C253 279.041 252.421 277.642 251.389 276.611C250.358 275.579 248.959 275 247.5 275" fill="white"/>
<path d="M253 286H242V297H253V286Z" fill="white"/>
<path d="M253 297H242V308H253V297Z" fill="white"/>
<path d="M247.5 341C250.538 341 253 338.538 253 335.5C253 332.462 250.538 330 247.5 330C244.462 330 242 332.462 242 335.5C242 338.538 244.462 341 247.5 341Z" fill="white"/>
<path d="M253 352H242V363H253V352Z" fill="white"/>
<path d="M253 363H242V374H253V363Z" fill="white"/>
<path d="M247.5 429C250.538 429 253 426.538 253 423.5C253 420.462 250.538 418 247.5 418C244.462 418 242 420.462 242 423.5C242 426.538 244.462 429 247.5 429Z" fill="white"/>
<path d="M253 0V11H264V5.5C264 4.77773 263.858 4.06253 263.581 3.39524C263.305 2.72795 262.9 2.12163 262.389 1.61091C261.878 1.10019 261.272 0.695064 260.605 0.418663C259.937 0.142262 259.222 0 258.5 0" fill="white"/>
<path d="M264 11H253V22H264V11Z" fill="white"/>
<path d="M264 22H253V33H264V22Z" fill="white"/>
<path d="M264 44V33H253V38.5C253 39.9587 253.579 41.3576 254.611 42.3891C255.642 43.4205 257.041 44 258.5 44" fill="white"/>
<path d="M253 99H264V93.5C264 92.0413 263.421 90.6424 262.389 89.6109C261.358 88.5795 259.959 88 258.5 88C257.041 88 255.642 88.5795 254.611 89.6109C253.579 90.6424 253 92.0413 253 93.5" fill="white"/>
<path d="M264 99H253V110H264V99Z" fill="white"/>
<path d="M264 110H253V121H264V110Z" fill="white"/>
<path d="M264 121H253V132H264V121Z" fill="white"/>
<path d="M253 165H264V159.5C264 158.041 263.421 156.642 262.389 155.611C261.358 154.579 259.959 154 258.5 154C257.041 154 255.642 154.579 254.611 155.611C253.579 156.642 253 158.041 253 159.5" fill="white"/>
<path d="M264 165H253V176H264V165Z" fill="white"/>
<path d="M264 176H253V181.5C253 182.959 253.579 184.358 254.611 185.389C255.642 186.421 257.041 187 258.5 187C259.959 187 261.358 186.421 262.389 185.389C263.421 184.358 264 182.959 264 181.5" fill="white"/>
<path d="M264 220H253V231H264V220Z" fill="white"/>
<path d="M253 264H264V258.5C264 257.041 263.421 255.642 262.389 254.611C261.358 253.579 259.959 253 258.5 253C257.041 253 255.642 253.579 254.611 254.611C253.579 255.642 253 257.041 253 258.5" fill="white"/>
<path d="M264 275V264H253V269.5C253 270.959 253.579 272.358 254.611 273.389C255.642 274.421 257.041 275 258.5 275" fill="white"/>
<path d="M264 297H253V308H264V297Z" fill="white"/>
<path d="M264 308H253V313.5C253 314.959 253.579 316.358 254.611 317.389C255.642 318.421 257.041 319 258.5 319C259.959 319 261.358 318.421 262.389 317.389C263.421 316.358 264 314.959 264 313.5" fill="white"/>
<path d="M253 352H264V341H258.5C257.041 341 255.642 341.579 254.611 342.611C253.579 343.642 253 345.041 253 346.5" fill="white"/>
<path d="M264 352H253V363H264V352Z" fill="white"/>
<path d="M264 363H253V374H264V363Z" fill="white"/>
<path d="M264 374H253V385H264V374Z" fill="white"/>
<path d="M264 385H253V390.5C253 391.959 253.579 393.358 254.611 394.389C255.642 395.421 257.041 396 258.5 396C259.959 396 261.358 395.421 262.389 394.389C263.421 393.358 264 391.959 264 390.5" fill="white"/>
<path d="M264 418V407H258.5C257.041 407 255.642 407.579 254.611 408.611C253.579 409.642 253 411.041 253 412.5C253 413.959 253.579 415.358 254.611 416.389C255.642 417.421 257.041 418 258.5 418" fill="white"/>
<path d="M264 440V429H258.5C257.041 429 255.642 429.579 254.611 430.611C253.579 431.642 253 433.041 253 434.5C253 435.959 253.579 437.358 254.611 438.389C255.642 439.421 257.041 440 258.5 440" fill="white"/>
<path d="M275 11H264V22H275V11Z" fill="white"/>
<path d="M275 22H264V33H275V22Z" fill="white"/>
<path d="M275 33H264V44H275V33Z" fill="white"/>
<path d="M275 44H264V55H275V44Z" fill="white"/>
<path d="M275 55H264V66H275V55Z" fill="white"/>
<path d="M275 66H264V77H275V66Z" fill="white"/>
<path d="M275 88V77H264V82.5C264 83.9587 264.579 85.3576 265.611 86.3891C266.642 87.4205 268.041 88 269.5 88" fill="white"/>
<path d="M275 99H264V110H275V99Z" fill="white"/>
<path d="M275 110H264V121H275V110Z" fill="white"/>
<path d="M275 121H264V132H275V121Z" fill="white"/>
<path d="M275 132H264V143H275V132Z" fill="white"/>
<path d="M275 154V143H264V148.5C264 149.959 264.579 151.358 265.611 152.389C266.642 153.421 268.041 154 269.5 154" fill="white"/>
<path d="M275 165H264V176H275V165Z" fill="white"/>
<path d="M269.5 198C272.538 198 275 195.538 275 192.5C275 189.462 272.538 187 269.5 187C266.462 187 264 189.462 264 192.5C264 195.538 266.462 198 269.5 198Z" fill="white"/>
<path d="M275 220H264V231H275V220Z" fill="white"/>
<path d="M275 242V231H264V236.5C264 237.959 264.579 239.358 265.611 240.389C266.642 241.421 268.041 242 269.5 242" fill="white"/>
<path d="M264 264V275H275V269.5C275 268.041 274.421 266.642 273.389 265.611C272.358 264.579 270.959 264 269.5 264" fill="white"/>
<path d="M275 275H264V280.5C264 281.959 264.579 283.358 265.611 284.389C266.642 285.421 268.041 286 269.5 286C270.959 286 272.358 285.421 273.389 284.389C274.421 283.358 275 281.959 275 280.5" fill="white"/>
<path d="M264 297V308H269.5C270.959 308 272.358 307.421 273.389 306.389C274.421 305.358 275 303.959 275 302.5C275 301.041 274.421 299.642 273.389 298.611C272.358 297.579 270.959 297 269.5 297" fill="white"/>
<path d="M275 330V319H269.5C268.041 319 266.642 319.579 265.611 320.611C264.579 321.642 264 323.041 264 324.5C264 325.959 264.579 327.358 265.611 328.389C266.642 329.421 268.041 330 269.5 330" fill="white"/>
<path d="M275 341H264V352H275V341Z" fill="white"/>
<path d="M275 407H264V418H275V407Z" fill="white"/>
<path d="M275 418H264V429H275V418Z" fill="white"/>
<path d="M275 429H264V440H275V429Z" fill="white"/>
<path d="M275 11H286V5.5C286 4.04131 285.421 2.64235 284.389 1.6109C283.358 0.579451 281.959 0 280.5 0C279.041 0 277.642 0.579451 276.611 1.6109C275.579 2.64235 275 4.04131 275 5.5" fill="white"/>
<path d="M286 11H275V22H286V11Z" fill="white"/>
<path d="M286 22H275V33H286V22Z" fill="white"/>
<path d="M286 33H275V44H286V33Z" fill="white"/>
<path d="M286 44H275V55H286V44Z" fill="white"/>
<path d="M286 77H275V88H286V77Z" fill="white"/>
<path d="M286 99H275V110H286V99Z" fill="white"/>
<path d="M286 132H275V143H286V132Z" fill="white"/>
<path d="M286 143H275V154H286V143Z" fill="white"/>
<path d="M286 154H275V165H286V154Z" fill="white"/>
<path d="M286 165H275V176H286V165Z" fill="white"/>
<path d="M286 220H275V231H286V220Z" fill="white"/>
<path d="M286 231H275V242H286V231Z" fill="white"/>
<path d="M286 242H275V253H286V242Z" fill="white"/>
<path d="M286 253H275V258.5C275 259.959 275.579 261.358 276.611 262.389C277.642 263.421 279.041 264 280.5 264C281.959 264 283.358 263.421 284.389 262.389C285.421 261.358 286 259.959 286 258.5" fill="white"/>
<path d="M275 319H286V313.5C286 312.041 285.421 310.642 284.389 309.611C283.358 308.579 281.959 308 280.5 308C279.041 308 277.642 308.579 276.611 309.611C275.579 310.642 275 312.041 275 313.5" fill="white"/>
<path d="M286 319H275V330H286V319Z" fill="white"/>
<path d="M286 330H275V341H286V330Z" fill="white"/>
<path d="M286 341H275V352H280.5C281.959 352 283.358 351.421 284.389 350.389C285.421 349.358 286 347.959 286 346.5" fill="white"/>
<path d="M275 374H286V363H280.5C279.041 363 277.642 363.579 276.611 364.611C275.579 365.642 275 367.041 275 368.5" fill="white"/>
<path d="M286 374H275V379.5C275 380.959 275.579 382.358 276.611 383.389C277.642 384.421 279.041 385 280.5 385C281.959 385 283.358 384.421 284.389 383.389C285.421 382.358 286 380.959 286 379.5" fill="white"/>
<path d="M275 407H286V401.5C286 400.041 285.421 398.642 284.389 397.611C283.358 396.579 281.959 396 280.5 396C279.041 396 277.642 396.579 276.611 397.611C275.579 398.642 275 400.041 275 401.5" fill="white"/>
<path d="M286 407H275V418H280.5C281.959 418 283.358 417.421 284.389 416.389C285.421 415.358 286 413.959 286 412.5" fill="white"/>
<path d="M275 429V440H286V434.5C286 433.041 285.421 431.642 284.389 430.611C283.358 429.579 281.959 429 280.5 429" fill="white"/>
<path d="M286 440H275V445.5C275 446.959 275.579 448.358 276.611 449.389C277.642 450.421 279.041 451 280.5 451C281.959 451 283.358 450.421 284.389 449.389C285.421 448.358 286 446.959 286 445.5" fill="white"/>
<path d="M297 44H286V55H297V44Z" fill="white"/>
<path d="M286 77H297V71.5C297 70.0413 296.421 68.6424 295.389 67.6109C294.358 66.5795 292.959 66 291.5 66C290.041 66 288.642 66.5795 287.611 67.6109C286.579 68.6424 286 70.0413 286 71.5" fill="white"/>
<path d="M297 77H286V88H297V77Z" fill="white"/>
<path d="M297 88H286V99H297V88Z" fill="white"/>
<path d="M297 99H286V110H297V99Z" fill="white"/>
<path d="M286 132V143H291.5C292.959 143 294.358 142.421 295.389 141.389C296.421 140.358 297 138.959 297 137.5C297 136.041 296.421 134.642 295.389 133.611C294.358 132.579 292.959 132 291.5 132" fill="white"/>
<path d="M286 165V176H297V170.5C297 169.041 296.421 167.642 295.389 166.611C294.358 165.579 292.959 165 291.5 165" fill="white"/>
<path d="M297 176H286V187H297V176Z" fill="white"/>
<path d="M297 187H286V192.5C286 193.959 286.579 195.358 287.611 196.389C288.642 197.421 290.041 198 291.5 198C292.959 198 294.358 197.421 295.389 196.389C296.421 195.358 297 193.959 297 192.5" fill="white"/>
<path d="M286 220V231H291.5C292.959 231 294.358 230.421 295.389 229.389C296.421 228.358 297 226.959 297 225.5C297 224.041 296.421 222.642 295.389 221.611C294.358 220.579 292.959 220 291.5 220" fill="white"/>
<path d="M286 297H297V286H291.5C290.041 286 288.642 286.579 287.611 287.611C286.579 288.642 286 290.041 286 291.5" fill="white"/>
<path d="M297 308V297H286V302.5C286 303.959 286.579 305.358 287.611 306.389C288.642 307.421 290.041 308 291.5 308" fill="white"/>
<path d="M286 363H297V352H291.5C290.041 352 288.642 352.579 287.611 353.611C286.579 354.642 286 356.041 286 357.5" fill="white"/>
<path d="M297 363H286V374H291.5C292.959 374 294.358 373.421 295.389 372.389C296.421 371.358 297 369.959 297 368.5" fill="white"/>
<path d="M297 396V385H291.5C290.041 385 288.642 385.579 287.611 386.611C286.579 387.642 286 389.041 286 390.5C286 391.959 286.579 393.358 287.611 394.389C288.642 395.421 290.041 396 291.5 396" fill="white"/>
<path d="M308 33V22H302.5C301.041 22 299.642 22.5795 298.611 23.6109C297.579 24.6424 297 26.0413 297 27.5C297 28.9587 297.579 30.3576 298.611 31.3891C299.642 32.4205 301.041 33 302.5 33" fill="white"/>
<path d="M308 44H297V55H308V44Z" fill="white"/>
<path d="M308 66V55H297V60.5C297 61.9587 297.579 63.3576 298.611 64.3891C299.642 65.4205 301.041 66 302.5 66" fill="white"/>
<path d="M308 99H297V110H308V99Z" fill="white"/>
<path d="M308 121V110H297V115.5C297 116.959 297.579 118.358 298.611 119.389C299.642 120.421 301.041 121 302.5 121" fill="white"/>
<path d="M308 154V143H302.5C301.041 143 299.642 143.579 298.611 144.611C297.579 145.642 297 147.041 297 148.5C297 149.959 297.579 151.358 298.611 152.389C299.642 153.421 301.041 154 302.5 154" fill="white"/>
<path d="M297 209H308V203.5C308 202.041 307.421 200.642 306.389 199.611C305.358 198.579 303.959 198 302.5 198C301.041 198 299.642 198.579 298.611 199.611C297.579 200.642 297 202.041 297 203.5" fill="white"/>
<path d="M308 220V209H297V214.5C297 215.959 297.579 217.358 298.611 218.389C299.642 219.421 301.041 220 302.5 220" fill="white"/>
<path d="M308 242V231H302.5C301.041 231 299.642 231.579 298.611 232.611C297.579 233.642 297 235.041 297 236.5C297 237.959 297.579 239.358 298.611 240.389C299.642 241.421 301.041 242 302.5 242" fill="white"/>
<path d="M302.5 264C305.538 264 308 261.538 308 258.5C308 255.462 305.538 253 302.5 253C299.462 253 297 255.462 297 258.5C297 261.538 299.462 264 302.5 264Z" fill="white"/>
<path d="M308 286H297V297H308V286Z" fill="white"/>
<path d="M308 297H297V308H302.5C303.959 308 305.358 307.421 306.389 306.389C307.421 305.358 308 303.959 308 302.5" fill="white"/>
<path d="M297 352H308V341H302.5C301.041 341 299.642 341.579 298.611 342.611C297.579 343.642 297 345.041 297 346.5" fill="white"/>
<path d="M308 352H297V363H302.5C303.959 363 305.358 362.421 306.389 361.389C307.421 360.358 308 358.959 308 357.5" fill="white"/>
<path d="M297 385V396H308V390.5C308 389.041 307.421 387.642 306.389 386.611C305.358 385.579 303.959 385 302.5 385" fill="white"/>
<path d="M308 396H297V407H308V396Z" fill="white"/>
<path d="M308 418V407H297V412.5C297 413.959 297.579 415.358 298.611 416.389C299.642 417.421 301.041 418 302.5 418" fill="white"/>
<path d="M297 440H308V429H302.5C301.041 429 299.642 429.579 298.611 430.611C297.579 431.642 297 433.041 297 434.5" fill="white"/>
<path d="M308 440H297V445.5C297 446.959 297.579 448.358 298.611 449.389C299.642 450.421 301.041 451 302.5 451C303.959 451 305.358 450.421 306.389 449.389C307.421 448.358 308 446.959 308 445.5" fill="white"/>
<path d="M308 22H319V16.5C319 15.0413 318.421 13.6424 317.389 12.6109C316.358 11.5795 314.959 11 313.5 11C312.041 11 310.642 11.5795 309.611 12.6109C308.579 13.6424 308 15.0413 308 16.5" fill="white"/>
<path d="M319 22H308V33H319V22Z" fill="white"/>
<path d="M319 33H308V44H319V33Z" fill="white"/>
<path d="M319 44H308V55H319V44Z" fill="white"/>
<path d="M319 55H308V66H319V55Z" fill="white"/>
<path d="M319 66H308V71.5C308 72.9587 308.579 74.3576 309.611 75.3891C310.642 76.4205 312.041 77 313.5 77C314.959 77 316.358 76.4205 317.389 75.3891C318.421 74.3576 319 72.9587 319 71.5" fill="white"/>
<path d="M308 99V110H319V104.5C319 103.041 318.421 101.642 317.389 100.611C316.358 99.5795 314.959 99 313.5 99" fill="white"/>
<path d="M319 110H308V121H319V110Z" fill="white"/>
<path d="M319 143H308V154H319V143Z" fill="white"/>
<path d="M313.5 176C316.538 176 319 173.538 319 170.5C319 167.462 316.538 165 313.5 165C310.462 165 308 167.462 308 170.5C308 173.538 310.462 176 313.5 176Z" fill="white"/>
<path d="M319 209H308V220H319V209Z" fill="white"/>
<path d="M319 231H308V242H319V231Z" fill="white"/>
<path d="M308 275H319V269.5C319 268.041 318.421 266.642 317.389 265.611C316.358 264.579 314.959 264 313.5 264C312.041 264 310.642 264.579 309.611 265.611C308.579 266.642 308 268.041 308 269.5" fill="white"/>
<path d="M319 275H308V286H319V275Z" fill="white"/>
<path d="M319 286H308V297H313.5C314.959 297 316.358 296.421 317.389 295.389C318.421 294.358 319 292.959 319 291.5" fill="white"/>
<path d="M308 319H319V313.5C319 312.041 318.421 310.642 317.389 309.611C316.358 308.579 314.959 308 313.5 308C312.041 308 310.642 308.579 309.611 309.611C308.579 310.642 308 312.041 308 313.5" fill="white"/>
<path d="M319 319H308V330H319V319Z" fill="white"/>
<path d="M319 330H308V341H319V330Z" fill="white"/>
<path d="M319 341H308V352H319V341Z" fill="white"/>
<path d="M319 407H308V418H319V407Z" fill="white"/>
<path d="M319 418H308V429H319V418Z" fill="white"/>
<path d="M319 429H308V440H319V429Z" fill="white"/>
<path d="M330 11V0H324.5C323.041 0 321.642 0.579462 320.611 1.61091C319.579 2.64236 319 4.04131 319 5.5C319 6.95869 319.579 8.35764 320.611 9.38909C321.642 10.4205 323.041 11 324.5 11" fill="white"/>
<path d="M330 33H319V44H330V33Z" fill="white"/>
<path d="M330 44H319V55H330V44Z" fill="white"/>
<path d="M324.5 99C327.538 99 330 96.5376 330 93.5C330 90.4624 327.538 88 324.5 88C321.462 88 319 90.4624 319 93.5C319 96.5376 321.462 99 324.5 99Z" fill="white"/>
<path d="M330 110H319V121H330V110Z" fill="white"/>
<path d="M319 143H330V137.5C330 136.041 329.421 134.642 328.389 133.611C327.358 132.579 325.959 132 324.5 132C323.041 132 321.642 132.579 320.611 133.611C319.579 134.642 319 136.041 319 137.5" fill="white"/>
<path d="M330 143H319V154H330V143Z" fill="white"/>
<path d="M330 154H319V159.5C319 160.959 319.579 162.358 320.611 163.389C321.642 164.421 323.041 165 324.5 165C325.959 165 327.358 164.421 328.389 163.389C329.421 162.358 330 160.959 330 159.5" fill="white"/>
<path d="M319 187H330V181.5C330 180.041 329.421 178.642 328.389 177.611C327.358 176.579 325.959 176 324.5 176C323.041 176 321.642 176.579 320.611 177.611C319.579 178.642 319 180.041 319 181.5" fill="white"/>
<path d="M330 187H319V198H330V187Z" fill="white"/>
<path d="M330 198H319V209H330V198Z" fill="white"/>
<path d="M330 209H319V220H330V209Z" fill="white"/>
<path d="M330 220H319V231H330V220Z" fill="white"/>
<path d="M330 231H319V242H324.5C325.959 242 327.358 241.421 328.389 240.389C329.421 239.358 330 237.959 330 236.5" fill="white"/>
<path d="M330 308V297H324.5C323.041 297 321.642 297.579 320.611 298.611C319.579 299.642 319 301.041 319 302.5C319 303.959 319.579 305.358 320.611 306.389C321.642 307.421 323.041 308 324.5 308" fill="white"/>
<path d="M319 341V352H330V346.5C330 345.041 329.421 343.642 328.389 342.611C327.358 341.579 325.959 341 324.5 341" fill="white"/>
<path d="M330 352H319V357.5C319 358.959 319.579 360.358 320.611 361.389C321.642 362.421 323.041 363 324.5 363C325.959 363 327.358 362.421 328.389 361.389C329.421 360.358 330 358.959 330 357.5" fill="white"/>
<path d="M330 385V374H324.5C323.041 374 321.642 374.579 320.611 375.611C319.579 376.642 319 378.041 319 379.5C319 380.959 319.579 382.358 320.611 383.389C321.642 384.421 323.041 385 324.5 385" fill="white"/>
<path d="M319 407H330V401.5C330 400.041 329.421 398.642 328.389 397.611C327.358 396.579 325.959 396 324.5 396C323.041 396 321.642 396.579 320.611 397.611C319.579 398.642 319 400.041 319 401.5" fill="white"/>
<path d="M330 407H319V418H330V407Z" fill="white"/>
<path d="M319 429V440H330V434.5C330 433.041 329.421 431.642 328.389 430.611C327.358 429.579 325.959 429 324.5 429" fill="white"/>
<path d="M330 440H319V445.5C319 446.959 319.579 448.358 320.611 449.389C321.642 450.421 323.041 451 324.5 451C325.959 451 327.358 450.421 328.389 449.389C329.421 448.358 330 446.959 330 445.5" fill="white"/>
<path d="M341 0H330V11H341V0Z" fill="white"/>
<path d="M330 33H341V22H335.5C334.041 22 332.642 22.5795 331.611 23.6109C330.579 24.6424 330 26.0413 330 27.5" fill="white"/>
<path d="M341 33H330V44H341V33Z" fill="white"/>
<path d="M341 44H330V55H335.5C336.959 55 338.358 54.4205 339.389 53.3891C340.421 52.3576 341 50.9587 341 49.5" fill="white"/>
<path d="M330 77H341V71.5C341 70.0413 340.421 68.6424 339.389 67.6109C338.358 66.5795 336.959 66 335.5 66C334.041 66 332.642 66.5795 331.611 67.6109C330.579 68.6424 330 70.0413 330 71.5" fill="white"/>
<path d="M341 77H330V82.5C330 83.9587 330.579 85.3576 331.611 86.3891C332.642 87.4205 334.041 88 335.5 88C336.959 88 338.358 87.4205 339.389 86.3891C340.421 85.3576 341 83.9587 341 82.5" fill="white"/>
<path d="M330 110H341V99H335.5C334.041 99 332.642 99.5795 331.611 100.611C330.579 101.642 330 103.041 330 104.5" fill="white"/>
<path d="M341 110H330V121H341V110Z" fill="white"/>
<path d="M330 143V154H335.5C336.959 154 338.358 153.421 339.389 152.389C340.421 151.358 341 149.959 341 148.5C341 147.041 340.421 145.642 339.389 144.611C338.358 143.579 336.959 143 335.5 143" fill="white"/>
<path d="M335.5 176C338.538 176 341 173.538 341 170.5C341 167.462 338.538 165 335.5 165C332.462 165 330 167.462 330 170.5C330 173.538 332.462 176 335.5 176Z" fill="white"/>
<path d="M330 187V198H335.5C336.959 198 338.358 197.421 339.389 196.389C340.421 195.358 341 193.959 341 192.5C341 191.041 340.421 189.642 339.389 188.611C338.358 187.579 336.959 187 335.5 187" fill="white"/>
<path d="M330 264H341V253H335.5C334.041 253 332.642 253.579 331.611 254.611C330.579 255.642 330 257.041 330 258.5" fill="white"/>
<path d="M341 264H330V269.5C330 270.959 330.579 272.358 331.611 273.389C332.642 274.421 334.041 275 335.5 275C336.959 275 338.358 274.421 339.389 273.389C340.421 272.358 341 270.959 341 269.5" fill="white"/>
<path d="M341 297H330V308H341V297Z" fill="white"/>
<path d="M341 308H330V319H341V308Z" fill="white"/>
<path d="M341 319H330V330H341V319Z" fill="white"/>
<path d="M341 341V330H330V335.5C330 336.959 330.579 338.358 331.611 339.389C332.642 340.421 334.041 341 335.5 341" fill="white"/>
<path d="M330 374H341V363H335.5C334.041 363 332.642 363.579 331.611 364.611C330.579 365.642 330 367.041 330 368.5" fill="white"/>
<path d="M341 374H330V385H341V374Z" fill="white"/>
<path d="M341 407H330V418H341V407Z" fill="white"/>
<path d="M352 0H341V11H352V0Z" fill="white"/>
<path d="M341 22V33H352V27.5C352 26.0413 351.421 24.6424 350.389 23.6109C349.358 22.5795 347.959 22 346.5 22" fill="white"/>
<path d="M352 33H341V44H346.5C347.959 44 349.358 43.4205 350.389 42.3891C351.421 41.3576 352 39.9587 352 38.5" fill="white"/>
<path d="M352 66V55H346.5C345.041 55 343.642 55.5795 342.611 56.6109C341.579 57.6424 341 59.0413 341 60.5C341 61.9587 341.579 63.3576 342.611 64.3891C343.642 65.4205 345.041 66 346.5 66" fill="white"/>
<path d="M341 99H352V88H346.5C345.041 88 343.642 88.5795 342.611 89.6109C341.579 90.6424 341 92.0413 341 93.5" fill="white"/>
<path d="M352 99H341V110H352V99Z" fill="white"/>
<path d="M352 110H341V121H352V110Z" fill="white"/>
<path d="M352 132V121H341V126.5C341 127.959 341.579 129.358 342.611 130.389C343.642 131.421 345.041 132 346.5 132" fill="white"/>
<path d="M341 209H352V198H346.5C345.041 198 343.642 198.579 342.611 199.611C341.579 200.642 341 202.041 341 203.5" fill="white"/>
<path d="M352 220V209H341V214.5C341 215.959 341.579 217.358 342.611 218.389C343.642 219.421 345.041 220 346.5 220" fill="white"/>
<path d="M346.5 242C349.538 242 352 239.538 352 236.5C352 233.462 349.538 231 346.5 231C343.462 231 341 233.462 341 236.5C341 239.538 343.462 242 346.5 242Z" fill="white"/>
<path d="M352 253H341V264H352V253Z" fill="white"/>
<path d="M341 297H352V286H346.5C345.041 286 343.642 286.579 342.611 287.611C341.579 288.642 341 290.041 341 291.5" fill="white"/>
<path d="M352 297H341V308H352V297Z" fill="white"/>
<path d="M341 330V341H346.5C347.959 341 349.358 340.421 350.389 339.389C351.421 338.358 352 336.959 352 335.5C352 334.041 351.421 332.642 350.389 331.611C349.358 330.579 347.959 330 346.5 330" fill="white"/>
<path d="M352 363H341V374H352V363Z" fill="white"/>
<path d="M352 374H341V385H352V374Z" fill="white"/>
<path d="M341 407H352V396H346.5C345.041 396 343.642 396.579 342.611 397.611C341.579 398.642 341 400.041 341 401.5" fill="white"/>
<path d="M352 407H341V418H346.5C347.959 418 349.358 417.421 350.389 416.389C351.421 415.358 352 413.959 352 412.5" fill="white"/>
<path d="M352 440V429H346.5C345.041 429 343.642 429.579 342.611 430.611C341.579 431.642 341 433.041 341 434.5C341 435.959 341.579 437.358 342.611 438.389C343.642 439.421 345.041 440 346.5 440" fill="white"/>
<path d="M352 0V11H357.5C358.959 11 360.358 10.4205 361.389 9.38909C362.421 8.35764 363 6.95869 363 5.5C363 4.04131 362.421 2.64236 361.389 1.61091C360.358 0.579462 358.959 0 357.5 0" fill="white"/>
<path d="M352 55H363V49.5C363 48.0413 362.421 46.6424 361.389 45.6109C360.358 44.5795 358.959 44 357.5 44C356.041 44 354.642 44.5795 353.611 45.6109C352.579 46.6424 352 48.0413 352 49.5" fill="white"/>
<path d="M363 55H352V66H363V55Z" fill="white"/>
<path d="M363 66H352V71.5C352 72.9587 352.579 74.3576 353.611 75.3891C354.642 76.4205 356.041 77 357.5 77C358.959 77 360.358 76.4205 361.389 75.3891C362.421 74.3576 363 72.9587 363 71.5" fill="white"/>
<path d="M363 88H352V99H363V88Z" fill="white"/>
<path d="M352 110V121H363V115.5C363 114.041 362.421 112.642 361.389 111.611C360.358 110.579 358.959 110 357.5 110" fill="white"/>
<path d="M363 121H352V132H363V121Z" fill="white"/>
<path d="M363 132H352V143H363V132Z" fill="white"/>
<path d="M363 143H352V154H363V143Z" fill="white"/>
<path d="M363 154H352V165H363V154Z" fill="white"/>
<path d="M363 176V165H352V170.5C352 171.959 352.579 173.358 353.611 174.389C354.642 175.421 356.041 176 357.5 176" fill="white"/>
<path d="M363 198H352V209H363V198Z" fill="white"/>
<path d="M363 209H352V220H363V209Z" fill="white"/>
<path d="M363 220H352V225.5C352 226.959 352.579 228.358 353.611 229.389C354.642 230.421 356.041 231 357.5 231C358.959 231 360.358 230.421 361.389 229.389C362.421 228.358 363 226.959 363 225.5" fill="white"/>
<path d="M352 253H363V247.5C363 246.041 362.421 244.642 361.389 243.611C360.358 242.579 358.959 242 357.5 242C356.041 242 354.642 242.579 353.611 243.611C352.579 244.642 352 246.041 352 247.5" fill="white"/>
<path d="M363 253H352V264H363V253Z" fill="white"/>
<path d="M352 286H363V280.5C363 279.041 362.421 277.642 361.389 276.611C360.358 275.579 358.959 275 357.5 275C356.041 275 354.642 275.579 353.611 276.611C352.579 277.642 352 279.041 352 280.5" fill="white"/>
<path d="M363 286H352V297H363V286Z" fill="white"/>
<path d="M363 297H352V308H357.5C358.959 308 360.358 307.421 361.389 306.389C362.421 305.358 363 303.959 363 302.5" fill="white"/>
<path d="M363 330V319H357.5C356.041 319 354.642 319.579 353.611 320.611C352.579 321.642 352 323.041 352 324.5C352 325.959 352.579 327.358 353.611 328.389C354.642 329.421 356.041 330 357.5 330" fill="white"/>
<path d="M352 363H363V352H357.5C356.041 352 354.642 352.579 353.611 353.611C352.579 354.642 352 356.041 352 357.5" fill="white"/>
<path d="M363 363H352V374H363V363Z" fill="white"/>
<path d="M363 374H352V385H363V374Z" fill="white"/>
<path d="M363 385H352V396H363V385Z" fill="white"/>
<path d="M363 396H352V407H363V396Z" fill="white"/>
<path d="M352 429H363V418H357.5C356.041 418 354.642 418.579 353.611 419.611C352.579 420.642 352 422.041 352 423.5" fill="white"/>
<path d="M363 429H352V440H363V429Z" fill="white"/>
<path d="M363 451V440H352V445.5C352 446.959 352.579 448.358 353.611 449.389C354.642 450.421 356.041 451 357.5 451" fill="white"/>
<path d="M374 88H363V99H374V88Z" fill="white"/>
<path d="M374 99H363V104.5C363 105.959 363.579 107.358 364.611 108.389C365.642 109.421 367.041 110 368.5 110C369.959 110 371.358 109.421 372.389 108.389C373.421 107.358 374 105.959 374 104.5" fill="white"/>
<path d="M363 121V132H374V126.5C374 125.041 373.421 123.642 372.389 122.611C371.358 121.579 369.959 121 368.5 121" fill="white"/>
<path d="M374 132H363V143H368.5C369.959 143 371.358 142.421 372.389 141.389C373.421 140.358 374 138.959 374 137.5" fill="white"/>
<path d="M374 154H363V165H374V154Z" fill="white"/>
<path d="M374 165H363V176H374V165Z" fill="white"/>
<path d="M374 198H363V209H374V198Z" fill="white"/>
<path d="M374 209H363V220H368.5C369.959 220 371.358 219.421 372.389 218.389C373.421 217.358 374 215.959 374 214.5" fill="white"/>
<path d="M374 242V231H368.5C367.041 231 365.642 231.579 364.611 232.611C363.579 233.642 363 235.041 363 236.5C363 237.959 363.579 239.358 364.611 240.389C365.642 241.421 367.041 242 368.5 242" fill="white"/>
<path d="M363 253V264H368.5C369.959 264 371.358 263.421 372.389 262.389C373.421 261.358 374 259.959 374 258.5C374 257.041 373.421 255.642 372.389 254.611C371.358 253.579 369.959 253 368.5 253" fill="white"/>
<path d="M363 286V297H368.5C369.959 297 371.358 296.421 372.389 295.389C373.421 294.358 374 292.959 374 291.5C374 290.041 373.421 288.642 372.389 287.611C371.358 286.579 369.959 286 368.5 286" fill="white"/>
<path d="M363 319H374V308H368.5C367.041 308 365.642 308.579 364.611 309.611C363.579 310.642 363 312.041 363 313.5" fill="white"/>
<path d="M374 319H363V330H374V319Z" fill="white"/>
<path d="M374 330H363V341H374V330Z" fill="white"/>
<path d="M374 341H363V352H374V341Z" fill="white"/>
<path d="M374 352H363V363H374V352Z" fill="white"/>
<path d="M374 396H363V407H374V396Z" fill="white"/>
<path d="M374 407H363V418H374V407Z" fill="white"/>
<path d="M374 418H363V429H374V418Z" fill="white"/>
<path d="M363 440V451H368.5C369.959 451 371.358 450.421 372.389 449.389C373.421 448.358 374 446.959 374 445.5C374 444.041 373.421 442.642 372.389 441.611C371.358 440.579 369.959 440 368.5 440" fill="white"/>
<path d="M385 88H374V99H385V88Z" fill="white"/>
<path d="M379.5 121C382.538 121 385 118.538 385 115.5C385 112.462 382.538 110 379.5 110C376.462 110 374 112.462 374 115.5C374 118.538 376.462 121 379.5 121Z" fill="white"/>
<path d="M385 154H374V165H385V154Z" fill="white"/>
<path d="M385 165H374V176H379.5C380.959 176 382.358 175.421 383.389 174.389C384.421 173.358 385 171.959 385 170.5" fill="white"/>
<path d="M374 198V209H379.5C380.959 209 382.358 208.421 383.389 207.389C384.421 206.358 385 204.959 385 203.5C385 202.041 384.421 200.642 383.389 199.611C382.358 198.579 380.959 198 379.5 198" fill="white"/>
<path d="M374 231H385V220H379.5C378.041 220 376.642 220.579 375.611 221.611C374.579 222.642 374 224.041 374 225.5" fill="white"/>
<path d="M385 231H374V242H385V231Z" fill="white"/>
<path d="M385 253V242H374V247.5C374 248.959 374.579 250.358 375.611 251.389C376.642 252.421 378.041 253 379.5 253" fill="white"/>
<path d="M374 308H385V302.5C385 301.041 384.421 299.642 383.389 298.611C382.358 297.579 380.959 297 379.5 297C378.041 297 376.642 297.579 375.611 298.611C374.579 299.642 374 301.041 374 302.5" fill="white"/>
<path d="M385 308H374V319H385V308Z" fill="white"/>
<path d="M385 319H374V330H385V319Z" fill="white"/>
<path d="M385 341H374V352H385V341Z" fill="white"/>
<path d="M385 352H374V363H385V352Z" fill="white"/>
<path d="M379.5 385C382.538 385 385 382.538 385 379.5C385 376.462 382.538 374 379.5 374C376.462 374 374 376.462 374 379.5C374 382.538 376.462 385 379.5 385Z" fill="white"/>
<path d="M385 396H374V407H385V396Z" fill="white"/>
<path d="M385 407H374V418H385V407Z" fill="white"/>
<path d="M385 418H374V429H379.5C380.959 429 382.358 428.421 383.389 427.389C384.421 426.358 385 424.959 385 423.5" fill="white"/>
<path d="M396 88H385V99H396V88Z" fill="white"/>
<path d="M385 132H396V126.5C396 125.041 395.421 123.642 394.389 122.611C393.358 121.579 391.959 121 390.5 121C389.041 121 387.642 121.579 386.611 122.611C385.579 123.642 385 125.041 385 126.5" fill="white"/>
<path d="M396 132H385V137.5C385 138.959 385.579 140.358 386.611 141.389C387.642 142.421 389.041 143 390.5 143C391.959 143 393.358 142.421 394.389 141.389C395.421 140.358 396 138.959 396 137.5" fill="white"/>
<path d="M385 154V165H390.5C391.959 165 393.358 164.421 394.389 163.389C395.421 162.358 396 160.959 396 159.5C396 158.041 395.421 156.642 394.389 155.611C393.358 154.579 391.959 154 390.5 154" fill="white"/>
<path d="M396 187V176H390.5C389.041 176 387.642 176.579 386.611 177.611C385.579 178.642 385 180.041 385 181.5C385 182.959 385.579 184.358 386.611 185.389C387.642 186.421 389.041 187 390.5 187" fill="white"/>
<path d="M396 220H385V231H396V220Z" fill="white"/>
<path d="M396 231H385V242H396V231Z" fill="white"/>
<path d="M396 242H385V253H396V242Z" fill="white"/>
<path d="M396 253H385V264H396V253Z" fill="white"/>
<path d="M396 275V264H385V269.5C385 270.959 385.579 272.358 386.611 273.389C387.642 274.421 389.041 275 390.5 275" fill="white"/>
<path d="M390.5 297C393.538 297 396 294.538 396 291.5C396 288.462 393.538 286 390.5 286C387.462 286 385 288.462 385 291.5C385 294.538 387.462 297 390.5 297Z" fill="white"/>
<path d="M385 319V330H396V324.5C396 323.041 395.421 321.642 394.389 320.611C393.358 319.579 391.959 319 390.5 319" fill="white"/>
<path d="M396 330H385V341H396V330Z" fill="white"/>
<path d="M396 341H385V352H396V341Z" fill="white"/>
<path d="M396 352H385V363H396V352Z" fill="white"/>
<path d="M396 396H385V407H396V396Z" fill="white"/>
<path d="M407 88H396V99H407V88Z" fill="white"/>
<path d="M401.5 154C404.538 154 407 151.538 407 148.5C407 145.462 404.538 143 401.5 143C398.462 143 396 145.462 396 148.5C396 151.538 398.462 154 401.5 154Z" fill="white"/>
<path d="M396 176V187H401.5C402.959 187 404.358 186.421 405.389 185.389C406.421 184.358 407 182.959 407 181.5C407 180.041 406.421 178.642 405.389 177.611C404.358 176.579 402.959 176 401.5 176" fill="white"/>
<path d="M407 209V198H401.5C400.041 198 398.642 198.579 397.611 199.611C396.579 200.642 396 202.041 396 203.5C396 204.959 396.579 206.358 397.611 207.389C398.642 208.421 400.041 209 401.5 209" fill="white"/>
<path d="M407 220H396V231H407V220Z" fill="white"/>
<path d="M407 231H396V242H401.5C402.959 242 404.358 241.421 405.389 240.389C406.421 239.358 407 237.959 407 236.5" fill="white"/>
<path d="M396 264V275H401.5C402.959 275 404.358 274.421 405.389 273.389C406.421 272.358 407 270.959 407 269.5C407 268.041 406.421 266.642 405.389 265.611C404.358 264.579 402.959 264 401.5 264" fill="white"/>
<path d="M396 308H407V302.5C407 301.041 406.421 299.642 405.389 298.611C404.358 297.579 402.959 297 401.5 297C400.041 297 398.642 297.579 397.611 298.611C396.579 299.642 396 301.041 396 302.5" fill="white"/>
<path d="M407 308H396V313.5C396 314.959 396.579 316.358 397.611 317.389C398.642 318.421 400.041 319 401.5 319C402.959 319 404.358 318.421 405.389 317.389C406.421 316.358 407 314.959 407 313.5" fill="white"/>
<path d="M396 352V363H407V357.5C407 356.041 406.421 354.642 405.389 353.611C404.358 352.579 402.959 352 401.5 352" fill="white"/>
<path d="M407 363H396V374H407V363Z" fill="white"/>
<path d="M407 374H396V385H407V374Z" fill="white"/>
<path d="M407 385H396V396H407V385Z" fill="white"/>
<path d="M407 396H396V407H407V396Z" fill="white"/>
<path d="M407 407H396V418H407V407Z" fill="white"/>
<path d="M407 418H396V429H407V418Z" fill="white"/>
<path d="M407 429H396V440H407V429Z" fill="white"/>
<path d="M407 440H396V445.5C396 446.959 396.579 448.358 397.611 449.389C398.642 450.421 400.041 451 401.5 451C402.959 451 404.358 450.421 405.389 449.389C406.421 448.358 407 446.959 407 445.5" fill="white"/>
<path d="M418 88H407V99H418V88Z" fill="white"/>
<path d="M407 132H418V121H412.5C411.041 121 409.642 121.579 408.611 122.611C407.579 123.642 407 125.041 407 126.5" fill="white"/>
<path d="M418 143V132H407V137.5C407 138.959 407.579 140.358 408.611 141.389C409.642 142.421 411.041 143 412.5 143" fill="white"/>
<path d="M412.5 176C415.538 176 418 173.538 418 170.5C418 167.462 415.538 165 412.5 165C409.462 165 407 167.462 407 170.5C407 173.538 409.462 176 412.5 176Z" fill="white"/>
<path d="M407 198V209H412.5C413.959 209 415.358 208.421 416.389 207.389C417.421 206.358 418 204.959 418 203.5C418 202.041 417.421 200.642 416.389 199.611C415.358 198.579 413.959 198 412.5 198" fill="white"/>
<path d="M418 220H407V231H418V220Z" fill="white"/>
<path d="M412.5 264C415.538 264 418 261.538 418 258.5C418 255.462 415.538 253 412.5 253C409.462 253 407 255.462 407 258.5C407 261.538 409.462 264 412.5 264Z" fill="white"/>
<path d="M407 286H418V275H412.5C411.041 275 409.642 275.579 408.611 276.611C407.579 277.642 407 279.041 407 280.5" fill="white"/>
<path d="M418 297V286H407V291.5C407 292.959 407.579 294.358 408.611 295.389C409.642 296.421 411.041 297 412.5 297" fill="white"/>
<path d="M407 330H418V324.5C418 323.041 417.421 321.642 416.389 320.611C415.358 319.579 413.959 319 412.5 319C411.041 319 409.642 319.579 408.611 320.611C407.579 321.642 407 323.041 407 324.5" fill="white"/>
<path d="M418 330H407V341H418V330Z" fill="white"/>
<path d="M418 352V341H407V346.5C407 347.959 407.579 349.358 408.611 350.389C409.642 351.421 411.041 352 412.5 352" fill="white"/>
<path d="M418 363H407V374H418V363Z" fill="white"/>
<path d="M418 385H407V396H418V385Z" fill="white"/>
<path d="M418 407H407V418H418V407Z" fill="white"/>
<path d="M407 429V440H412.5C413.959 440 415.358 439.421 416.389 438.389C417.421 437.358 418 435.959 418 434.5C418 433.041 417.421 431.642 416.389 430.611C415.358 429.579 413.959 429 412.5 429" fill="white"/>
<path d="M429 88H418V99H429V88Z" fill="white"/>
<path d="M429 99H418V110H429V99Z" fill="white"/>
<path d="M429 110H418V121H429V110Z" fill="white"/>
<path d="M429 121H418V132H429V121Z" fill="white"/>
<path d="M429 132H418V143H423.5C424.959 143 426.358 142.421 427.389 141.389C428.421 140.358 429 138.959 429 137.5" fill="white"/>
<path d="M429 165V154H423.5C422.041 154 420.642 154.579 419.611 155.611C418.579 156.642 418 158.041 418 159.5C418 160.959 418.579 162.358 419.611 163.389C420.642 164.421 422.041 165 423.5 165" fill="white"/>
<path d="M423.5 187C426.538 187 429 184.538 429 181.5C429 178.462 426.538 176 423.5 176C420.462 176 418 178.462 418 181.5C418 184.538 420.462 187 423.5 187Z" fill="white"/>
<path d="M418 220V231H429V225.5C429 224.041 428.421 222.642 427.389 221.611C426.358 220.579 424.959 220 423.5 220" fill="white"/>
<path d="M429 242V231H418V236.5C418 237.959 418.579 239.358 419.611 240.389C420.642 241.421 422.041 242 423.5 242" fill="white"/>
<path d="M418 275H429V269.5C429 268.041 428.421 266.642 427.389 265.611C426.358 264.579 424.959 264 423.5 264C422.041 264 420.642 264.579 419.611 265.611C418.579 266.642 418 268.041 418 269.5" fill="white"/>
<path d="M429 275H418V286H429V275Z" fill="white"/>
<path d="M429 286H418V297H429V286Z" fill="white"/>
<path d="M429 297H418V308H429V297Z" fill="white"/>
<path d="M429 319V308H418V313.5C418 314.959 418.579 316.358 419.611 317.389C420.642 318.421 422.041 319 423.5 319" fill="white"/>
<path d="M418 341V352H423.5C424.959 352 426.358 351.421 427.389 350.389C428.421 349.358 429 347.959 429 346.5C429 345.041 428.421 343.642 427.389 342.611C426.358 341.579 424.959 341 423.5 341" fill="white"/>
<path d="M418 363V374H429V368.5C429 367.041 428.421 365.642 427.389 364.611C426.358 363.579 424.959 363 423.5 363" fill="white"/>
<path d="M429 374H418V385H429V374Z" fill="white"/>
<path d="M429 385H418V396H429V385Z" fill="white"/>
<path d="M429 396H418V407H429V396Z" fill="white"/>
<path d="M429 407H418V418H429V407Z" fill="white"/>
<path d="M429 88V99H440V93.5C440 92.0413 439.421 90.6424 438.389 89.6109C437.358 88.5795 435.959 88 434.5 88" fill="white"/>
<path d="M440 99H429V110H440V99Z" fill="white"/>
<path d="M440 110H429V121H434.5C435.959 121 437.358 120.421 438.389 119.389C439.421 118.358 440 116.959 440 115.5" fill="white"/>
<path d="M429 154V165H440V159.5C440 158.041 439.421 156.642 438.389 155.611C437.358 154.579 435.959 154 434.5 154" fill="white"/>
<path d="M440 176V165H429V170.5C429 171.959 429.579 173.358 430.611 174.389C431.642 175.421 433.041 176 434.5 176" fill="white"/>
<path d="M434.5 198C437.538 198 440 195.538 440 192.5C440 189.462 437.538 187 434.5 187C431.462 187 429 189.462 429 192.5C429 195.538 431.462 198 434.5 198Z" fill="white"/>
<path d="M440 220V209H434.5C433.041 209 431.642 209.579 430.611 210.611C429.579 211.642 429 213.041 429 214.5C429 215.959 429.579 217.358 430.611 218.389C431.642 219.421 433.041 220 434.5 220" fill="white"/>
<path d="M440 231H429V242H440V231Z" fill="white"/>
<path d="M440 242H429V253H440V242Z" fill="white"/>
<path d="M440 264V253H429V258.5C429 259.959 429.579 261.358 430.611 262.389C431.642 263.421 433.041 264 434.5 264" fill="white"/>
<path d="M440 297H429V308H440V297Z" fill="white"/>
<path d="M440 308H429V319H434.5C435.959 319 437.358 318.421 438.389 317.389C439.421 316.358 440 314.959 440 313.5" fill="white"/>
<path d="M434.5 363C437.538 363 440 360.538 440 357.5C440 354.462 437.538 352 434.5 352C431.462 352 429 354.462 429 357.5C429 360.538 431.462 363 434.5 363Z" fill="white"/>
<path d="M440 374H429V385H440V374Z" fill="white"/>
<path d="M440 396H429V407H440V396Z" fill="white"/>
<path d="M440 407H429V418H434.5C435.959 418 437.358 417.421 438.389 416.389C439.421 415.358 440 413.959 440 412.5" fill="white"/>
<path d="M434.5 440C437.538 440 440 437.538 440 434.5C440 431.462 437.538 429 434.5 429C431.462 429 429 431.462 429 434.5C429 437.538 431.462 440 434.5 440Z" fill="white"/>
<path d="M440 99V110H445.5C446.959 110 448.358 109.421 449.389 108.389C450.421 107.358 451 105.959 451 104.5C451 103.041 450.421 101.642 449.389 100.611C448.358 99.5795 446.959 99 445.5 99" fill="white"/>
<path d="M445.5 154C448.538 154 451 151.538 451 148.5C451 145.462 448.538 143 445.5 143C442.462 143 440 145.462 440 148.5C440 151.538 442.462 154 445.5 154Z" fill="white"/>
<path d="M440 165V176H451V170.5C451 169.041 450.421 167.642 449.389 166.611C448.358 165.579 446.959 165 445.5 165" fill="white"/>
<path d="M451 176H440V181.5C440 182.959 440.579 184.358 441.611 185.389C442.642 186.421 444.041 187 445.5 187C446.959 187 448.358 186.421 449.389 185.389C450.421 184.358 451 182.959 451 181.5" fill="white"/>
<path d="M440 209V220H445.5C446.959 220 448.358 219.421 449.389 218.389C450.421 217.358 451 215.959 451 214.5C451 213.041 450.421 211.642 449.389 210.611C448.358 209.579 446.959 209 445.5 209" fill="white"/>
<path d="M440 231V242H445.5C446.959 242 448.358 241.421 449.389 240.389C450.421 239.358 451 237.959 451 236.5C451 235.041 450.421 233.642 449.389 232.611C448.358 231.579 446.959 231 445.5 231" fill="white"/>
<path d="M440 253V264H451V258.5C451 257.041 450.421 255.642 449.389 254.611C448.358 253.579 446.959 253 445.5 253" fill="white"/>
<path d="M451 264H440V275H451V264Z" fill="white"/>
<path d="M451 275H440V286H451V275Z" fill="white"/>
<path d="M451 286H440V297H451V286Z" fill="white"/>
<path d="M451 297H440V308H445.5C446.959 308 448.358 307.421 449.389 306.389C450.421 305.358 451 303.959 451 302.5" fill="white"/>
<path d="M445.5 330C448.538 330 451 327.538 451 324.5C451 321.462 448.538 319 445.5 319C442.462 319 440 321.462 440 324.5C440 327.538 442.462 330 445.5 330Z" fill="white"/>
<path d="M440 374V385H451V379.5C451 378.041 450.421 376.642 449.389 375.611C448.358 374.579 446.959 374 445.5 374" fill="white"/>
<path d="M451 385H440V396H451V385Z" fill="white"/>
<path d="M451 396H440V407H445.5C446.959 407 448.358 406.421 449.389 405.389C450.421 404.358 451 402.959 451 401.5" fill="white"/>
<path d="M445.5 429C448.538 429 451 426.538 451 423.5C451 420.462 448.538 418 445.5 418C442.462 418 440 420.462 440 423.5C440 426.538 442.462 429 445.5 429Z" fill="white"/>
<path fill-rule="evenodd" clip-rule="evenodd" d="M0 27.5V49.5C0 56.7935 2.89731 63.7882 8.05456 68.9454C13.2118 74.1027 20.2065 77 27.5 77H49.5C56.7935 77 63.7882 74.1027 68.9454 68.9454C74.1027 63.7882 77 56.7935 77 49.5V27.5C77 20.2065 74.1027 13.2118 68.9454 8.05456C63.7882 2.89731 56.7935 0 49.5 0H27.5C20.2065 0 13.2118 2.89731 8.05456 8.05456C2.89731 13.2118 0 20.2065 0 27.5ZM27.5 11H49.5C53.8761 11 58.0729 12.7384 61.1673 15.8327C64.2616 18.9271 66 23.1239 66 27.5V49.5C66 53.8761 64.2616 58.0729 61.1673 61.1673C58.0729 64.2616 53.8761 66 49.5 66H27.5C23.1239 66 18.9271 64.2616 15.8327 61.1673C12.7384 58.0729 11 53.8761 11 49.5V27.5C11 23.1239 12.7384 18.9271 15.8327 15.8327C18.9271 12.7384 23.1239 11 27.5 11Z" fill="white"/>
<path d="M38.5 55C47.6127 55 55 47.6127 55 38.5C55 29.3873 47.6127 22 38.5 22C29.3873 22 22 29.3873 22 38.5C22 47.6127 29.3873 55 38.5 55Z" fill="white"/>
<path fill-rule="evenodd" clip-rule="evenodd" d="M423.5 0L401.5 0C394.207 0 387.212 2.89732 382.055 8.05457C376.897 13.2118 374 20.2065 374 27.5V49.5C374 56.7935 376.897 63.7882 382.055 68.9454C387.212 74.1027 394.207 77 401.5 77H423.5C430.793 77 437.788 74.1027 442.945 68.9454C448.103 63.7882 451 56.7935 451 49.5V27.5C451 20.2065 448.103 13.2118 442.945 8.05457C437.788 2.89732 430.793 0 423.5 0ZM440 27.5V49.5C440 53.8761 438.262 58.0729 435.167 61.1673C432.073 64.2616 427.876 66 423.5 66H401.5C397.124 66 392.927 64.2616 389.833 61.1673C386.738 58.0729 385 53.8761 385 49.5V27.5C385 23.1239 386.738 18.9271 389.833 15.8327C392.927 12.7384 397.124 11 401.5 11L423.5 11C427.876 11 432.073 12.7384 435.167 15.8327C438.262 18.9271 440 23.1239 440 27.5Z" fill="white"/>
<path d="M396 38.5C396 47.6127 403.387 55 412.5 55C421.613 55 429 47.6127 429 38.5C429 29.3873 421.613 22 412.5 22C403.387 22 396 29.3873 396 38.5Z" fill="white"/>
<path fill-rule="evenodd" clip-rule="evenodd" d="M27.5 451H49.5C56.7935 451 63.7882 448.103 68.9454 442.945C74.1027 437.788 77 430.793 77 423.5V401.5C77 394.207 74.1027 387.212 68.9454 382.055C63.7882 376.897 56.7935 374 49.5 374H27.5C20.2065 374 13.2118 376.897 8.05457 382.055C2.89732 387.212 0 394.207 0 401.5L0 423.5C0 430.793 2.89732 437.788 8.05457 442.945C13.2118 448.103 20.2065 451 27.5 451ZM11 423.5L11 401.5C11 397.124 12.7384 392.927 15.8327 389.833C18.9271 386.738 23.1239 385 27.5 385H49.5C53.8761 385 58.0729 386.738 61.1673 389.833C64.2616 392.927 66 397.124 66 401.5V423.5C66 427.876 64.2616 432.073 61.1673 435.167C58.0729 438.262 53.8761 440 49.5 440H27.5C23.1239 440 18.9271 438.262 15.8327 435.167C12.7384 432.073 11 427.876 11 423.5Z" fill="white"/>
<path d="M55 412.5C55 403.387 47.6127 396 38.5 396C29.3873 396 22 403.387 22 412.5C22 421.613 29.3873 429 38.5 429C47.6127 429 55 421.613 55 412.5Z" fill="white"/>
</mask>
<g mask="url(#mask0_3_774)">
<path d="M476 -24H-24V476H476V-24Z" fill="white"/>
</g>
</svg>
